<svg width="201" height="238" viewBox="0 0 201 238" fill="none" xmlns="http://www.w3.org/2000/svg">
<rect x="12.4213" y="0.370492" width="188.21" height="225.259" rx="8.52131" fill="white"/>
<rect x="12.4213" y="0.370492" width="188.21" height="225.259" rx="8.52131" stroke="#B3C2F6" stroke-width="0.740984"/>
<path d="M27.6133 24.8203V17.2758H30.4425C31.0221 17.2758 31.5084 17.3764 31.9013 17.5778C32.2967 17.7792 32.5951 18.0616 32.7965 18.4251C33.0003 18.7861 33.1022 19.2073 33.1022 19.6887C33.1022 20.1725 32.9991 20.5925 32.7928 20.9486C32.589 21.3022 32.2881 21.5761 31.8903 21.7701C31.4924 21.9616 31.0037 22.0574 30.4241 22.0574H28.409V20.9228H30.2399C30.5788 20.9228 30.8563 20.8761 31.0724 20.7828C31.2886 20.687 31.4482 20.5483 31.5513 20.3665C31.6569 20.1823 31.7097 19.9564 31.7097 19.6887C31.7097 19.421 31.6569 19.1926 31.5513 19.0035C31.4457 18.8119 31.2849 18.667 31.0687 18.5688C30.8526 18.4681 30.5739 18.4178 30.2325 18.4178H28.98V24.8203H27.6133ZM31.5108 21.4017L33.3785 24.8203H31.8534L30.0188 21.4017H31.5108ZM36.3104 24.9308C35.7431 24.9308 35.2531 24.8129 34.8405 24.5772C34.4304 24.339 34.1148 24.0025 33.8938 23.5678C33.6727 23.1306 33.5622 22.6161 33.5622 22.0243C33.5622 21.4422 33.6727 20.9314 33.8938 20.4918C34.1172 20.0497 34.4291 19.7059 34.8295 19.4603C35.2298 19.2122 35.7001 19.0882 36.2404 19.0882C36.5891 19.0882 36.9182 19.1447 37.2277 19.2577C37.5396 19.3682 37.8146 19.5401 38.0528 19.7734C38.2935 20.0067 38.4826 20.3039 38.6202 20.6649C38.7577 21.0235 38.8265 21.4508 38.8265 21.9469V22.3558H34.1885V21.4569H37.5482C37.5457 21.2015 37.4904 20.9744 37.3824 20.7754C37.2743 20.574 37.1233 20.4156 36.9293 20.3002C36.7377 20.1848 36.5142 20.1271 36.2588 20.1271C35.9862 20.1271 35.7467 20.1934 35.5404 20.326C35.3342 20.4562 35.1733 20.6281 35.0579 20.8417C34.9449 21.0529 34.8872 21.285 34.8847 21.538V22.3227C34.8847 22.6517 34.9449 22.9342 35.0652 23.1699C35.1856 23.4033 35.3538 23.5825 35.5699 23.7078C35.786 23.8306 36.039 23.892 36.3288 23.892C36.5228 23.892 36.6984 23.865 36.8556 23.8109C37.0128 23.7544 37.1491 23.6722 37.2645 23.5641C37.3799 23.4561 37.4671 23.3222 37.5261 23.1626L38.7712 23.3026C38.6926 23.6317 38.5428 23.919 38.3218 24.1646C38.1032 24.4077 37.8232 24.5968 37.4818 24.7319C37.1405 24.8645 36.75 24.9308 36.3104 24.9308ZM39.5397 26.9422V19.1619H40.8511V20.0976H40.9285C40.9973 19.9601 41.0943 19.8139 41.2195 19.6592C41.3448 19.502 41.5142 19.3682 41.7279 19.2577C41.9416 19.1447 42.2142 19.0882 42.5457 19.0882C42.9829 19.0882 43.3771 19.2 43.7282 19.4234C44.0819 19.6445 44.3619 19.9723 44.5682 20.407C44.7769 20.8393 44.8813 21.3698 44.8813 21.9985C44.8813 22.6198 44.7794 23.1478 44.5755 23.5825C44.3717 24.0172 44.0942 24.3488 43.743 24.5772C43.3918 24.8056 42.9939 24.9198 42.5494 24.9198C42.2252 24.9198 41.9563 24.8657 41.7426 24.7577C41.529 24.6496 41.3571 24.5195 41.2269 24.3672C41.0992 24.2125 40.9997 24.0663 40.9285 23.9288H40.8733V26.9422H39.5397ZM40.8475 21.9911C40.8475 22.357 40.899 22.6775 41.0022 22.9526C41.1078 23.2277 41.2588 23.4425 41.4553 23.5973C41.6542 23.7495 41.8949 23.8257 42.1773 23.8257C42.4721 23.8257 42.7189 23.7471 42.9178 23.5899C43.1167 23.4303 43.2665 23.2129 43.3672 22.9379C43.4704 22.6603 43.522 22.3448 43.522 21.9911C43.522 21.6399 43.4716 21.328 43.3709 21.0554C43.2702 20.7828 43.1204 20.5691 42.9215 20.4144C42.7226 20.2597 42.4745 20.1823 42.1773 20.1823C41.8925 20.1823 41.6505 20.2572 41.4516 20.407C41.2527 20.5568 41.1017 20.7668 40.9985 21.037C40.8978 21.3071 40.8475 21.6252 40.8475 21.9911ZM48.0765 24.9308C47.524 24.9308 47.0451 24.8093 46.6398 24.5661C46.2346 24.323 45.9202 23.9828 45.6968 23.5457C45.4757 23.1085 45.3652 22.5977 45.3652 22.0132C45.3652 21.4287 45.4757 20.9166 45.6968 20.477C45.9202 20.0374 46.2346 19.6961 46.6398 19.4529C47.0451 19.2098 47.524 19.0882 48.0765 19.0882C48.6291 19.0882 49.108 19.2098 49.5132 19.4529C49.9185 19.6961 50.2316 20.0374 50.4526 20.477C50.6761 20.9166 50.7879 21.4287 50.7879 22.0132C50.7879 22.5977 50.6761 23.1085 50.4526 23.5457C50.2316 23.9828 49.9185 24.323 49.5132 24.5661C49.108 24.8093 48.6291 24.9308 48.0765 24.9308ZM48.0839 23.8625C48.3835 23.8625 48.634 23.7802 48.8354 23.6157C49.0368 23.4487 49.1866 23.2252 49.2848 22.9452C49.3855 22.6653 49.4359 22.3533 49.4359 22.0095C49.4359 21.6632 49.3855 21.3501 49.2848 21.0701C49.1866 20.7877 49.0368 20.563 48.8354 20.396C48.634 20.229 48.3835 20.1455 48.0839 20.1455C47.7769 20.1455 47.5215 20.229 47.3177 20.396C47.1163 20.563 46.9652 20.7877 46.8645 21.0701C46.7663 21.3501 46.7172 21.6632 46.7172 22.0095C46.7172 22.3533 46.7663 22.6653 46.8645 22.9452C46.9652 23.2252 47.1163 23.4487 47.3177 23.6157C47.5215 23.7802 47.7769 23.8625 48.0839 23.8625ZM51.5048 24.8203V19.1619H52.7978V20.105H52.8568C52.9599 19.7783 53.1367 19.5266 53.3872 19.3498C53.6402 19.1705 53.9288 19.0808 54.2529 19.0808C54.3266 19.0808 54.4089 19.0845 54.4998 19.0919C54.5931 19.0968 54.6705 19.1054 54.7319 19.1177V20.3444C54.6754 20.3248 54.5857 20.3076 54.4629 20.2928C54.3426 20.2756 54.2259 20.2671 54.113 20.2671C53.8698 20.2671 53.6513 20.3199 53.4572 20.4255C53.2657 20.5286 53.1146 20.6723 53.0041 20.8565C52.8936 21.0407 52.8383 21.2531 52.8383 21.4938V24.8203H51.5048ZM58.3323 19.1619V20.1934H55.0795V19.1619H58.3323ZM55.8825 17.8062H57.2161V23.1184C57.2161 23.2976 57.2431 23.4352 57.2971 23.531C57.3536 23.6243 57.4273 23.6881 57.5182 23.7225C57.6091 23.7569 57.7097 23.7741 57.8203 23.7741C57.9038 23.7741 57.9799 23.768 58.0487 23.7557C58.1199 23.7434 58.1739 23.7323 58.2107 23.7225L58.4355 24.7651C58.3642 24.7896 58.2623 24.8166 58.1297 24.8461C57.9995 24.8756 57.8399 24.8928 57.6508 24.8977C57.3168 24.9075 57.0159 24.8572 56.7483 24.7466C56.4806 24.6337 56.2681 24.4593 56.1109 24.2235C55.9562 23.9878 55.8801 23.693 55.8825 23.3394V17.8062Z" fill="black"/>
<rect x="29.0918" y="37.0469" width="149.679" height="5.18689" rx="1.48197" fill="#E2E8F0"/>
<rect x="29" y="165" width="149.679" height="5.18689" rx="1.48197" fill="#E2E8F0"/>
<rect x="29" y="176" width="149.679" height="5.18689" rx="1.48197" fill="#E2E8F0"/>
<rect x="29" y="187" width="104" height="5" rx="1.48197" fill="#E2E8F0"/>
<rect x="29" y="198" width="85" height="5" rx="1.48197" fill="#E2E8F0"/>
<rect x="140" y="213" width="48" height="5" rx="1.48197" fill="#94A3B8"/>
<rect x="29.0918" y="48.1641" width="78.5443" height="5.18689" rx="1.48197" fill="#E2E8F0"/>
<rect x="73.5508" y="146.715" width="14.8197" height="5.18689" rx="1.48197" fill="#E2E8F0"/>
<rect x="140.238" y="17.043" width="14.8197" height="5.18689" rx="1.48197" fill="#E2E8F0"/>
<rect x="159.504" y="146.715" width="28.1574" height="5.18689" rx="1.48197" fill="#E2E8F0"/>
<rect x="29.0918" y="146.715" width="37.0492" height="5.18689" rx="1.48197" fill="#E2E8F0"/>
<rect x="159.504" y="14.8203" width="26.6754" height="9.63279" rx="4.81639" fill="#95A4D8"/>
<path d="M98.7443 101.514C98.7443 95.6886 97.2831 89.9565 94.4946 84.8422C91.7061 79.7279 87.6793 75.3948 82.7828 72.2394C77.8863 69.084 72.2765 67.2073 66.467 66.7809C60.6576 66.3546 54.8339 67.3922 49.5292 69.7989C44.2245 72.2056 39.6083 75.9045 36.103 80.5569C32.5977 85.2093 30.3154 90.6667 29.4649 96.4294C28.6145 102.192 29.2232 108.076 31.2351 113.543C33.2471 119.009 36.5982 123.884 40.9816 127.72L63.918 101.514H98.7443Z" fill="#3CCCCC"/>
<path d="M39.2922 126.14C44.9762 131.824 52.4516 135.366 60.4501 136.167C68.4487 136.967 76.4778 134.976 83.1756 130.531L63.918 101.514L39.2922 126.14Z" fill="#A0FFFF"/>
<path d="M82.7211 130.828C87.6329 127.677 91.6743 123.343 94.4741 118.223C97.2738 113.103 98.7422 107.362 98.7443 101.526L63.918 101.514L82.7211 130.828Z" fill="#5AEAEA"/>
<g clip-path="url(#clip0_58_1096)">
<mask id="path-18-inside-1_58_1096" fill="white">
<path d="M116.527 74.1016H186.18V136.344H116.527V74.1016Z"/>
</mask>
<rect width="10.3738" height="28.8984" transform="translate(122.457 107.445)" fill="#B3C2F6"/>
<rect width="10.3738" height="8.8918" transform="translate(122.457 98.5547)" fill="#D1E0FF"/>
<rect width="10.3738" height="3.70492" transform="translate(137.275 85.2188)" fill="#D1E0FF"/>
<rect width="10.3738" height="14.0787" transform="translate(152.094 111.148)" fill="#D1E0FF"/>
<rect width="10.3738" height="22.9705" transform="translate(166.916 75.5859)" fill="#D1E0FF"/>
<rect width="10.3738" height="47.423" transform="translate(137.275 88.9219)" fill="#B3C2F6"/>
<rect width="10.3738" height="11.1148" transform="translate(152.094 125.227)" fill="#B3C2F6"/>
<rect width="10.3738" height="37.7902" transform="translate(166.916 98.5547)" fill="#B3C2F6"/>
</g>
<path d="M116.527 136.344H115.786V137.085H116.527V136.344ZM186.18 135.603H116.527V137.085H186.18V135.603ZM117.268 136.344V74.1016H115.786V136.344H117.268Z" fill="#D1E0FF" mask="url(#path-18-inside-1_58_1096)"/>
<rect x="6.42127" y="6.37049" width="188.21" height="225.259" rx="8.52131" fill="white"/>
<rect x="6.42127" y="6.37049" width="188.21" height="225.259" rx="8.52131" stroke="#B3C2F6" stroke-width="0.740984"/>
<path d="M21.6133 30.8203V23.2758H24.4425C25.0221 23.2758 25.5084 23.3764 25.9013 23.5778C26.2967 23.7792 26.5951 24.0616 26.7965 24.4251C27.0003 24.7861 27.1022 25.2073 27.1022 25.6887C27.1022 26.1725 26.9991 26.5925 26.7928 26.9486C26.589 27.3022 26.2881 27.5761 25.8903 27.7701C25.4924 27.9616 25.0037 28.0574 24.4241 28.0574H22.409V26.9228H24.2399C24.5788 26.9228 24.8563 26.8761 25.0724 26.7828C25.2886 26.687 25.4482 26.5483 25.5513 26.3665C25.6569 26.1823 25.7097 25.9564 25.7097 25.6887C25.7097 25.421 25.6569 25.1926 25.5513 25.0035C25.4457 24.8119 25.2849 24.667 25.0687 24.5688C24.8526 24.4681 24.5739 24.4178 24.2325 24.4178H22.98V30.8203H21.6133ZM25.5108 27.4017L27.3785 30.8203H25.8534L24.0188 27.4017H25.5108ZM30.3104 30.9308C29.7431 30.9308 29.2531 30.8129 28.8405 30.5772C28.4304 30.339 28.1148 30.0025 27.8938 29.5678C27.6727 29.1306 27.5622 28.6161 27.5622 28.0243C27.5622 27.4422 27.6727 26.9314 27.8938 26.4918C28.1172 26.0497 28.4291 25.7059 28.8295 25.4603C29.2298 25.2122 29.7001 25.0882 30.2404 25.0882C30.5891 25.0882 30.9182 25.1447 31.2277 25.2577C31.5396 25.3682 31.8146 25.5401 32.0528 25.7734C32.2935 26.0067 32.4826 26.3039 32.6202 26.6649C32.7577 27.0235 32.8265 27.4508 32.8265 27.9469V28.3558H28.1885V27.4569H31.5482C31.5457 27.2015 31.4904 26.9744 31.3824 26.7754C31.2743 26.574 31.1233 26.4156 30.9293 26.3002C30.7377 26.1848 30.5142 26.1271 30.2588 26.1271C29.9862 26.1271 29.7467 26.1934 29.5404 26.326C29.3342 26.4562 29.1733 26.6281 29.0579 26.8417C28.9449 27.0529 28.8872 27.285 28.8847 27.538V28.3227C28.8847 28.6517 28.9449 28.9342 29.0652 29.1699C29.1856 29.4033 29.3538 29.5825 29.5699 29.7078C29.786 29.8306 30.039 29.892 30.3288 29.892C30.5228 29.892 30.6984 29.865 30.8556 29.8109C31.0128 29.7544 31.1491 29.6722 31.2645 29.5641C31.3799 29.4561 31.4671 29.3222 31.5261 29.1626L32.7712 29.3026C32.6926 29.6317 32.5428 29.919 32.3218 30.1646C32.1032 30.4077 31.8232 30.5968 31.4818 30.7319C31.1405 30.8645 30.75 30.9308 30.3104 30.9308ZM33.5397 32.9422V25.1619H34.8511V26.0976H34.9285C34.9973 25.9601 35.0943 25.8139 35.2195 25.6592C35.3448 25.502 35.5142 25.3682 35.7279 25.2577C35.9416 25.1447 36.2142 25.0882 36.5457 25.0882C36.9829 25.0882 37.3771 25.2 37.7282 25.4234C38.0819 25.6445 38.3619 25.9723 38.5682 26.407C38.7769 26.8393 38.8813 27.3698 38.8813 27.9985C38.8813 28.6198 38.7794 29.1478 38.5755 29.5825C38.3717 30.0172 38.0942 30.3488 37.743 30.5772C37.3918 30.8056 36.9939 30.9198 36.5494 30.9198C36.2252 30.9198 35.9563 30.8657 35.7426 30.7577C35.529 30.6496 35.3571 30.5195 35.2269 30.3672C35.0992 30.2125 34.9997 30.0663 34.9285 29.9288H34.8733V32.9422H33.5397ZM34.8475 27.9911C34.8475 28.357 34.899 28.6775 35.0022 28.9526C35.1078 29.2277 35.2588 29.4425 35.4553 29.5973C35.6542 29.7495 35.8949 29.8257 36.1773 29.8257C36.4721 29.8257 36.7189 29.7471 36.9178 29.5899C37.1167 29.4303 37.2665 29.2129 37.3672 28.9379C37.4704 28.6603 37.522 28.3448 37.522 27.9911C37.522 27.6399 37.4716 27.328 37.3709 27.0554C37.2702 26.7828 37.1204 26.5691 36.9215 26.4144C36.7226 26.2597 36.4745 26.1823 36.1773 26.1823C35.8925 26.1823 35.6505 26.2572 35.4516 26.407C35.2527 26.5568 35.1017 26.7668 34.9985 27.037C34.8978 27.3071 34.8475 27.6252 34.8475 27.9911ZM42.0765 30.9308C41.524 30.9308 41.0451 30.8093 40.6398 30.5661C40.2346 30.323 39.9202 29.9828 39.6968 29.5457C39.4757 29.1085 39.3652 28.5977 39.3652 28.0132C39.3652 27.4287 39.4757 26.9166 39.6968 26.477C39.9202 26.0374 40.2346 25.6961 40.6398 25.4529C41.0451 25.2098 41.524 25.0882 42.0765 25.0882C42.6291 25.0882 43.108 25.2098 43.5132 25.4529C43.9185 25.6961 44.2316 26.0374 44.4526 26.477C44.6761 26.9166 44.7879 27.4287 44.7879 28.0132C44.7879 28.5977 44.6761 29.1085 44.4526 29.5457C44.2316 29.9828 43.9185 30.323 43.5132 30.5661C43.108 30.8093 42.6291 30.9308 42.0765 30.9308ZM42.0839 29.8625C42.3835 29.8625 42.634 29.7802 42.8354 29.6157C43.0368 29.4487 43.1866 29.2252 43.2848 28.9452C43.3855 28.6653 43.4359 28.3533 43.4359 28.0095C43.4359 27.6632 43.3855 27.3501 43.2848 27.0701C43.1866 26.7877 43.0368 26.563 42.8354 26.396C42.634 26.229 42.3835 26.1455 42.0839 26.1455C41.7769 26.1455 41.5215 26.229 41.3177 26.396C41.1163 26.563 40.9652 26.7877 40.8645 27.0701C40.7663 27.3501 40.7172 27.6632 40.7172 28.0095C40.7172 28.3533 40.7663 28.6653 40.8645 28.9452C40.9652 29.2252 41.1163 29.4487 41.3177 29.6157C41.5215 29.7802 41.7769 29.8625 42.0839 29.8625ZM45.5048 30.8203V25.1619H46.7978V26.105H46.8568C46.9599 25.7783 47.1367 25.5266 47.3872 25.3498C47.6402 25.1705 47.9288 25.0808 48.2529 25.0808C48.3266 25.0808 48.4089 25.0845 48.4998 25.0919C48.5931 25.0968 48.6705 25.1054 48.7319 25.1177V26.3444C48.6754 26.3248 48.5857 26.3076 48.4629 26.2928C48.3426 26.2756 48.2259 26.2671 48.113 26.2671C47.8698 26.2671 47.6513 26.3199 47.4572 26.4255C47.2657 26.5286 47.1146 26.6723 47.0041 26.8565C46.8936 27.0407 46.8383 27.2531 46.8383 27.4938V30.8203H45.5048ZM52.3323 25.1619V26.1934H49.0795V25.1619H52.3323ZM49.8825 23.8062H51.2161V29.1184C51.2161 29.2976 51.2431 29.4352 51.2971 29.531C51.3536 29.6243 51.4273 29.6881 51.5182 29.7225C51.6091 29.7569 51.7097 29.7741 51.8203 29.7741C51.9038 29.7741 51.9799 29.768 52.0487 29.7557C52.1199 29.7434 52.1739 29.7323 52.2107 29.7225L52.4355 30.7651C52.3642 30.7896 52.2623 30.8166 52.1297 30.8461C51.9995 30.8756 51.8399 30.8928 51.6508 30.8977C51.3168 30.9075 51.0159 30.8572 50.7483 30.7466C50.4806 30.6337 50.2681 30.4593 50.1109 30.2235C49.9562 29.9878 49.8801 29.693 49.8825 29.3394V23.8062Z" fill="black"/>
<rect x="23.0918" y="43.0469" width="149.679" height="5.18689" rx="1.48197" fill="#E2E8F0"/>
<rect x="23" y="171" width="149.679" height="5.18689" rx="1.48197" fill="#E2E8F0"/>
<rect x="23" y="182" width="149.679" height="5.18689" rx="1.48197" fill="#E2E8F0"/>
<rect x="23" y="193" width="104" height="5" rx="1.48197" fill="#E2E8F0"/>
<rect x="23" y="204" width="85" height="5" rx="1.48197" fill="#E2E8F0"/>
<rect x="134" y="219" width="48" height="5" rx="1.48197" fill="#94A3B8"/>
<rect x="23.0918" y="54.1641" width="78.5443" height="5.18689" rx="1.48197" fill="#E2E8F0"/>
<rect x="67.5508" y="152.715" width="14.8197" height="5.18689" rx="1.48197" fill="#E2E8F0"/>
<rect x="134.238" y="23.043" width="14.8197" height="5.18689" rx="1.48197" fill="#E2E8F0"/>
<rect x="153.504" y="152.715" width="28.1574" height="5.18689" rx="1.48197" fill="#E2E8F0"/>
<rect x="23.0918" y="152.715" width="37.0492" height="5.18689" rx="1.48197" fill="#E2E8F0"/>
<rect x="153.504" y="20.8203" width="26.6754" height="9.63279" rx="4.81639" fill="#95A4D8"/>
<path d="M92.7443 107.514C92.7443 101.689 91.2831 95.9565 88.4946 90.8422C85.7061 85.7279 81.6793 81.3948 76.7828 78.2394C71.8863 75.084 66.2765 73.2073 60.467 72.7809C54.6576 72.3546 48.8339 73.3922 43.5292 75.7989C38.2245 78.2056 33.6083 81.9045 30.103 86.5569C26.5977 91.2093 24.3154 96.6667 23.4649 102.429C22.6145 108.192 23.2232 114.076 25.2351 119.543C27.2471 125.009 30.5982 129.884 34.9816 133.72L57.918 107.514H92.7443Z" fill="#3CCCCC"/>
<path d="M33.2922 132.14C38.9762 137.824 46.4516 141.366 54.4501 142.167C62.4487 142.967 70.4778 140.976 77.1756 136.531L57.918 107.514L33.2922 132.14Z" fill="#A0FFFF"/>
<path d="M76.7211 136.828C81.6329 133.677 85.6743 129.343 88.4741 124.223C91.2738 119.103 92.7422 113.362 92.7443 107.526L57.918 107.514L76.7211 136.828Z" fill="#5AEAEA"/>
<g clip-path="url(#clip1_58_1096)">
<mask id="path-37-inside-2_58_1096" fill="white">
<path d="M110.527 80.1016H180.18V142.344H110.527V80.1016Z"/>
</mask>
<rect width="10.3738" height="28.8984" transform="translate(116.457 113.445)" fill="#B3C2F6"/>
<rect width="10.3738" height="8.8918" transform="translate(116.457 104.555)" fill="#D1E0FF"/>
<rect width="10.3738" height="3.70492" transform="translate(131.275 91.2188)" fill="#D1E0FF"/>
<rect width="10.3738" height="14.0787" transform="translate(146.094 117.148)" fill="#D1E0FF"/>
<rect width="10.3738" height="22.9705" transform="translate(160.916 81.5859)" fill="#D1E0FF"/>
<rect width="10.3738" height="47.423" transform="translate(131.275 94.9219)" fill="#B3C2F6"/>
<rect width="10.3738" height="11.1148" transform="translate(146.094 131.227)" fill="#B3C2F6"/>
<rect width="10.3738" height="37.7902" transform="translate(160.916 104.555)" fill="#B3C2F6"/>
</g>
<path d="M110.527 142.344H109.786V143.085H110.527V142.344ZM180.18 141.603H110.527V143.085H180.18V141.603ZM111.268 142.344V80.1016H109.786V142.344H111.268Z" fill="#D1E0FF" mask="url(#path-37-inside-2_58_1096)"/>
<rect x="0.421273" y="12.3705" width="188.21" height="225.259" rx="8.52131" fill="white"/>
<rect x="0.421273" y="12.3705" width="188.21" height="225.259" rx="8.52131" stroke="#B3C2F6" stroke-width="0.740984"/>
<path d="M15.6133 36.8203V29.2758H18.4425C19.0221 29.2758 19.5084 29.3764 19.9013 29.5778C20.2967 29.7792 20.5951 30.0616 20.7965 30.4251C21.0003 30.7861 21.1022 31.2073 21.1022 31.6887C21.1022 32.1725 20.9991 32.5925 20.7928 32.9486C20.589 33.3022 20.2881 33.5761 19.8903 33.7701C19.4924 33.9616 19.0037 34.0574 18.4241 34.0574H16.409V32.9228H18.2399C18.5788 32.9228 18.8563 32.8761 19.0724 32.7828C19.2886 32.687 19.4482 32.5483 19.5513 32.3665C19.6569 32.1823 19.7097 31.9564 19.7097 31.6887C19.7097 31.421 19.6569 31.1926 19.5513 31.0035C19.4457 30.8119 19.2849 30.667 19.0687 30.5688C18.8526 30.4681 18.5739 30.4178 18.2325 30.4178H16.98V36.8203H15.6133ZM19.5108 33.4017L21.3785 36.8203H19.8534L18.0188 33.4017H19.5108ZM24.3104 36.9308C23.7431 36.9308 23.2531 36.8129 22.8405 36.5772C22.4304 36.339 22.1148 36.0025 21.8938 35.5678C21.6727 35.1306 21.5622 34.6161 21.5622 34.0243C21.5622 33.4422 21.6727 32.9314 21.8938 32.4918C22.1172 32.0497 22.4291 31.7059 22.8295 31.4603C23.2298 31.2122 23.7001 31.0882 24.2404 31.0882C24.5891 31.0882 24.9182 31.1447 25.2277 31.2577C25.5396 31.3682 25.8146 31.5401 26.0528 31.7734C26.2935 32.0067 26.4826 32.3039 26.6202 32.6649C26.7577 33.0235 26.8265 33.4508 26.8265 33.9469V34.3558H22.1885V33.4569H25.5482C25.5457 33.2015 25.4904 32.9744 25.3824 32.7754C25.2743 32.574 25.1233 32.4156 24.9293 32.3002C24.7377 32.1848 24.5142 32.1271 24.2588 32.1271C23.9862 32.1271 23.7467 32.1934 23.5404 32.326C23.3342 32.4562 23.1733 32.6281 23.0579 32.8417C22.9449 33.0529 22.8872 33.285 22.8847 33.538V34.3227C22.8847 34.6517 22.9449 34.9342 23.0652 35.1699C23.1856 35.4033 23.3538 35.5825 23.5699 35.7078C23.786 35.8306 24.039 35.892 24.3288 35.892C24.5228 35.892 24.6984 35.865 24.8556 35.8109C25.0128 35.7544 25.1491 35.6722 25.2645 35.5641C25.3799 35.4561 25.4671 35.3222 25.5261 35.1626L26.7712 35.3026C26.6926 35.6317 26.5428 35.919 26.3218 36.1646C26.1032 36.4077 25.8232 36.5968 25.4818 36.7319C25.1405 36.8645 24.75 36.9308 24.3104 36.9308ZM27.5397 38.9422V31.1619H28.8511V32.0976H28.9285C28.9973 31.9601 29.0943 31.8139 29.2195 31.6592C29.3448 31.502 29.5142 31.3682 29.7279 31.2577C29.9416 31.1447 30.2142 31.0882 30.5457 31.0882C30.9829 31.0882 31.3771 31.2 31.7282 31.4234C32.0819 31.6445 32.3619 31.9723 32.5682 32.407C32.7769 32.8393 32.8813 33.3698 32.8813 33.9985C32.8813 34.6198 32.7794 35.1478 32.5755 35.5825C32.3717 36.0172 32.0942 36.3488 31.743 36.5772C31.3918 36.8056 30.9939 36.9198 30.5494 36.9198C30.2252 36.9198 29.9563 36.8657 29.7426 36.7577C29.529 36.6496 29.3571 36.5195 29.2269 36.3672C29.0992 36.2125 28.9997 36.0663 28.9285 35.9288H28.8733V38.9422H27.5397ZM28.8475 33.9911C28.8475 34.357 28.899 34.6775 29.0022 34.9526C29.1078 35.2277 29.2588 35.4425 29.4553 35.5973C29.6542 35.7495 29.8949 35.8257 30.1773 35.8257C30.4721 35.8257 30.7189 35.7471 30.9178 35.5899C31.1167 35.4303 31.2665 35.2129 31.3672 34.9379C31.4704 34.6603 31.522 34.3448 31.522 33.9911C31.522 33.6399 31.4716 33.328 31.3709 33.0554C31.2702 32.7828 31.1204 32.5691 30.9215 32.4144C30.7226 32.2597 30.4745 32.1823 30.1773 32.1823C29.8925 32.1823 29.6505 32.2572 29.4516 32.407C29.2527 32.5568 29.1017 32.7668 28.9985 33.037C28.8978 33.3071 28.8475 33.6252 28.8475 33.9911ZM36.0765 36.9308C35.524 36.9308 35.0451 36.8093 34.6398 36.5661C34.2346 36.323 33.9202 35.9828 33.6968 35.5457C33.4757 35.1085 33.3652 34.5977 33.3652 34.0132C33.3652 33.4287 33.4757 32.9166 33.6968 32.477C33.9202 32.0374 34.2346 31.6961 34.6398 31.4529C35.0451 31.2098 35.524 31.0882 36.0765 31.0882C36.6291 31.0882 37.108 31.2098 37.5132 31.4529C37.9185 31.6961 38.2316 32.0374 38.4526 32.477C38.6761 32.9166 38.7879 33.4287 38.7879 34.0132C38.7879 34.5977 38.6761 35.1085 38.4526 35.5457C38.2316 35.9828 37.9185 36.323 37.5132 36.5661C37.108 36.8093 36.6291 36.9308 36.0765 36.9308ZM36.0839 35.8625C36.3835 35.8625 36.634 35.7802 36.8354 35.6157C37.0368 35.4487 37.1866 35.2252 37.2848 34.9452C37.3855 34.6653 37.4359 34.3533 37.4359 34.0095C37.4359 33.6632 37.3855 33.3501 37.2848 33.0701C37.1866 32.7877 37.0368 32.563 36.8354 32.396C36.634 32.229 36.3835 32.1455 36.0839 32.1455C35.7769 32.1455 35.5215 32.229 35.3177 32.396C35.1163 32.563 34.9652 32.7877 34.8645 33.0701C34.7663 33.3501 34.7172 33.6632 34.7172 34.0095C34.7172 34.3533 34.7663 34.6653 34.8645 34.9452C34.9652 35.2252 35.1163 35.4487 35.3177 35.6157C35.5215 35.7802 35.7769 35.8625 36.0839 35.8625ZM39.5048 36.8203V31.1619H40.7978V32.105H40.8568C40.9599 31.7783 41.1367 31.5266 41.3872 31.3498C41.6402 31.1705 41.9288 31.0808 42.2529 31.0808C42.3266 31.0808 42.4089 31.0845 42.4998 31.0919C42.5931 31.0968 42.6705 31.1054 42.7319 31.1177V32.3444C42.6754 32.3248 42.5857 32.3076 42.4629 32.2928C42.3426 32.2756 42.2259 32.2671 42.113 32.2671C41.8698 32.2671 41.6513 32.3199 41.4572 32.4255C41.2657 32.5286 41.1146 32.6723 41.0041 32.8565C40.8936 33.0407 40.8383 33.2531 40.8383 33.4938V36.8203H39.5048ZM46.3323 31.1619V32.1934H43.0795V31.1619H46.3323ZM43.8825 29.8062H45.2161V35.1184C45.2161 35.2976 45.2431 35.4352 45.2971 35.531C45.3536 35.6243 45.4273 35.6881 45.5182 35.7225C45.6091 35.7569 45.7097 35.7741 45.8203 35.7741C45.9038 35.7741 45.9799 35.768 46.0487 35.7557C46.1199 35.7434 46.1739 35.7323 46.2107 35.7225L46.4355 36.7651C46.3642 36.7896 46.2623 36.8166 46.1297 36.8461C45.9995 36.8756 45.8399 36.8928 45.6508 36.8977C45.3168 36.9075 45.0159 36.8572 44.7483 36.7466C44.4806 36.6337 44.2681 36.4593 44.1109 36.2235C43.9562 35.9878 43.8801 35.693 43.8825 35.3394V29.8062Z" fill="black"/>
<rect x="17.0918" y="49.0469" width="149.679" height="5.18689" rx="1.48197" fill="#E2E8F0"/>
<rect x="17" y="177" width="149.679" height="5.18689" rx="1.48197" fill="#E2E8F0"/>
<rect x="17" y="188" width="149.679" height="5.18689" rx="1.48197" fill="#E2E8F0"/>
<rect x="17" y="199" width="104" height="5" rx="1.48197" fill="#E2E8F0"/>
<rect x="17" y="210" width="85" height="5" rx="1.48197" fill="#E2E8F0"/>
<rect x="128" y="225" width="48" height="5" rx="1.48197" fill="#94A3B8"/>
<rect x="17.0918" y="60.1641" width="78.5443" height="5.18689" rx="1.48197" fill="#E2E8F0"/>
<rect x="61.5508" y="158.715" width="14.8197" height="5.18689" rx="1.48197" fill="#E2E8F0"/>
<rect x="128.238" y="29.043" width="14.8197" height="5.18689" rx="1.48197" fill="#E2E8F0"/>
<rect x="147.504" y="158.715" width="28.1574" height="5.18689" rx="1.48197" fill="#E2E8F0"/>
<rect x="17.0918" y="158.715" width="37.0492" height="5.18689" rx="1.48197" fill="#E2E8F0"/>
<rect x="147.504" y="26.8203" width="26.6754" height="9.63279" rx="4.81639" fill="#95A4D8"/>
<path d="M86.7443 113.514C86.7443 107.689 85.2831 101.957 82.4946 96.8422C79.7061 91.7279 75.6793 87.3948 70.7828 84.2394C65.8863 81.084 60.2765 79.2073 54.467 78.7809C48.6576 78.3546 42.8339 79.3922 37.5292 81.7989C32.2245 84.2056 27.6083 87.9045 24.103 92.5569C20.5977 97.2093 18.3154 102.667 17.4649 108.429C16.6145 114.192 17.2232 120.076 19.2351 125.543C21.2471 131.009 24.5982 135.884 28.9816 139.72L51.918 113.514H86.7443Z" fill="#3CCCCC"/>
<path d="M27.2922 138.14C32.9762 143.824 40.4516 147.366 48.4501 148.167C56.4487 148.967 64.4778 146.976 71.1756 142.531L51.918 113.514L27.2922 138.14Z" fill="#A0FFFF"/>
<path d="M70.7211 142.828C75.6329 139.677 79.6743 135.343 82.4741 130.223C85.2738 125.103 86.7422 119.362 86.7443 113.526L51.918 113.514L70.7211 142.828Z" fill="#5AEAEA"/>
<g clip-path="url(#clip2_58_1096)">
<mask id="path-56-inside-3_58_1096" fill="white">
<path d="M104.527 86.1016H174.18V148.344H104.527V86.1016Z"/>
</mask>
<rect width="10.3738" height="28.8984" transform="translate(110.457 119.445)" fill="#B3C2F6"/>
<rect width="10.3738" height="8.8918" transform="translate(110.457 110.555)" fill="#D1E0FF"/>
<rect width="10.3738" height="3.70492" transform="translate(125.275 97.2188)" fill="#D1E0FF"/>
<rect width="10.3738" height="14.0787" transform="translate(140.094 123.148)" fill="#D1E0FF"/>
<rect width="10.3738" height="22.9705" transform="translate(154.916 87.5859)" fill="#D1E0FF"/>
<rect width="10.3738" height="47.423" transform="translate(125.275 100.922)" fill="#B3C2F6"/>
<rect width="10.3738" height="11.1148" transform="translate(140.094 137.227)" fill="#B3C2F6"/>
<rect width="10.3738" height="37.7902" transform="translate(154.916 110.555)" fill="#B3C2F6"/>
</g>
<path d="M104.527 148.344H103.786V149.085H104.527V148.344ZM174.18 147.603H104.527V149.085H174.18V147.603ZM105.268 148.344V86.1016H103.786V148.344H105.268Z" fill="#D1E0FF" mask="url(#path-56-inside-3_58_1096)"/>
<defs>
<clipPath id="clip0_58_1096">
<path d="M116.527 74.1016H186.18V136.344H116.527V74.1016Z" fill="white"/>
</clipPath>
<clipPath id="clip1_58_1096">
<path d="M110.527 80.1016H180.18V142.344H110.527V80.1016Z" fill="white"/>
</clipPath>
<clipPath id="clip2_58_1096">
<path d="M104.527 86.1016H174.18V148.344H104.527V86.1016Z" fill="white"/>
</clipPath>
</defs>
</svg>
