<svg width="205" height="207" viewBox="0 0 205 207" fill="none" xmlns="http://www.w3.org/2000/svg">
<rect width="205" height="207" rx="10" fill="#262262"/>
<mask id="mask0_1029_682" style="mask-type:luminance" maskUnits="userSpaceOnUse" x="18" y="19" width="87" height="87">
<path d="M104.27 19H18.1001V105.17H104.27V19Z" fill="white"/>
</mask>
<g mask="url(#mask0_1029_682)">
<path d="M144.12 127.933C141.91 127.593 139.8 127.903 137.95 128.693C135.26 129.853 132.16 129.333 130.06 127.293L126.34 123.663C123.31 120.703 121.61 116.653 121.61 112.423V95.2927C121.61 92.2527 122.84 89.3427 125.01 87.2227L134.68 77.7827C136.24 76.2627 138.42 75.4527 140.57 75.8027C141.83 76.0127 143.17 76.0026 144.54 75.7326C149.09 74.8326 152.69 71.0927 153.37 66.5027C154.5 58.9227 148 52.5127 140.4 53.7927C135.66 54.5827 131.9 58.5027 131.27 63.2727C131.05 64.9527 131.2 66.5727 131.65 68.0627C132.49 70.8127 131.65 73.8027 129.59 75.8227L124.78 80.5227C122.31 82.9327 118.99 84.2927 115.53 84.2927H92.16C88.2 84.2927 84.4 82.7426 81.57 79.9826L75.61 74.1627C73.75 72.3527 72.84 69.7127 73.39 67.1827C73.66 65.9327 73.73 64.6127 73.54 63.2427C72.87 58.4527 69.07 54.5427 64.3 53.7927C56.7 52.6027 50.24 59.0827 51.48 66.6827C52.26 71.4827 56.23 75.2727 61.06 75.8827C62.45 76.0627 63.8 75.9726 65.07 75.6726C67.51 75.0926 70.08 75.6727 71.87 77.4327L77.94 83.3626C81.43 86.7726 83.4 91.4426 83.4 96.3326V113.993C83.4 118.443 81.6 122.713 78.42 125.823L75.77 128.403C73.73 130.403 70.59 130.813 68.13 129.363C66.08 128.153 63.6 127.583 60.98 127.933C56.12 128.573 52.17 132.453 51.46 137.303C50.29 145.253 57.52 151.913 65.59 149.743C70.43 148.443 73.66 143.863 73.66 138.853V138.823C73.66 137.903 74.03 137.023 74.69 136.383L84.77 126.533C87.43 123.943 90.99 122.483 94.7 122.483H113.41C116.36 122.483 119.19 123.633 121.3 125.703L128.39 132.623C130.1 134.293 131.16 136.573 131.16 138.963C131.16 139.743 131.24 140.533 131.41 141.343C132.38 145.843 136.13 149.373 140.7 150.013C148.24 151.073 154.6 144.593 153.32 137.023C152.54 132.373 148.76 128.663 144.1 127.933H144.12Z" fill="white"/>
<path d="M102.59 61.4414C108.527 61.4414 113.34 56.6285 113.34 50.6914C113.34 44.7543 108.527 39.9414 102.59 39.9414C96.653 39.9414 91.8401 44.7543 91.8401 50.6914C91.8401 56.6285 96.653 61.4414 102.59 61.4414Z" fill="white"/>
<path d="M57.04 31.5312C62.9771 31.5312 67.79 26.7183 67.79 20.7812C67.79 14.8442 62.9771 10.0312 57.04 10.0312C51.103 10.0312 46.29 14.8442 46.29 20.7812C46.29 26.7183 51.103 31.5312 57.04 31.5312Z" fill="white"/>
<path d="M19.8101 72.832C25.7471 72.832 30.5601 68.0191 30.5601 62.082C30.5601 56.145 25.7471 51.332 19.8101 51.332C13.873 51.332 9.06006 56.145 9.06006 62.082C9.06006 68.0191 13.873 72.832 19.8101 72.832Z" fill="white"/>
<path d="M54.1301 112.051C60.0672 112.051 64.8801 107.238 64.8801 101.301C64.8801 95.3638 60.0672 90.5508 54.1301 90.5508C48.1931 90.5508 43.3801 95.3638 43.3801 101.301C43.3801 107.238 48.1931 112.051 54.1301 112.051Z" fill="white"/>
<path d="M71.0101 32.1217C68.0401 34.8717 64.0801 37.8417 58.6401 38.7517C54.3101 39.4717 49.0801 35.8617 46.2501 33.8617C41.1801 30.2817 35.2601 30.0217 31.3201 34.2617C27.9501 37.8817 27.4101 43.0317 30.6301 47.7017C33.6501 52.0917 36.2101 55.7317 36.5901 60.1017C36.9301 64.0317 35.6601 68.1717 31.7001 74.2617C28.3701 79.3717 28.7001 84.7017 32.7401 88.4617C36.7801 92.2217 43.6001 92.1717 47.5501 87.9317C51.3401 83.8617 51.2601 77.9617 47.4801 73.5917C42.7901 68.0417 39.5201 56.4017 46.2901 49.1417C53.0601 41.8717 63.2301 42.3017 72.0101 47.6617C77.2401 50.9217 82.4201 50.6117 86.1701 46.5917C90.1101 42.3617 89.8801 35.7317 85.6401 31.7817C81.4701 27.9017 75.2501 28.0517 71.0201 32.1317L71.0101 32.1217Z" fill="white"/>
</g>
<mask id="mask1_1029_682" style="mask-type:luminance" maskUnits="userSpaceOnUse" x="104" y="19" width="84" height="87">
<path d="M187.42 19H104.67V105.17H187.42V19Z" fill="white"/>
</mask>
<g mask="url(#mask1_1029_682)">
<path d="M113.02 76.0391H110.2C108.228 76.0391 106.63 77.6374 106.63 79.609V134.399C106.63 136.371 108.228 137.969 110.2 137.969H113.02C114.992 137.969 116.59 136.371 116.59 134.399V79.609C116.59 77.6374 114.992 76.0391 113.02 76.0391Z" fill="white"/>
<path d="M125.33 63.8398H122.51C120.538 63.8398 118.94 65.4382 118.94 67.4099V122.2C118.94 124.171 120.538 125.77 122.51 125.77H125.33C127.302 125.77 128.9 124.171 128.9 122.2V67.4099C128.9 65.4382 127.302 63.8398 125.33 63.8398Z" fill="white"/>
<path d="M139.05 49.0312H135.87C133.65 49.0312 131.85 50.8311 131.85 53.0512V114.761C131.85 116.981 133.65 118.781 135.87 118.781H139.05C141.27 118.781 143.07 116.981 143.07 114.761V53.0512C143.07 50.8311 141.27 49.0312 139.05 49.0312Z" fill="white"/>
<path d="M153.25 38.832H150.07C147.85 38.832 146.05 40.6319 146.05 42.8521V112.012C146.05 114.232 147.85 116.032 150.07 116.032H153.25C155.47 116.032 157.27 114.232 157.27 112.012V42.8521C157.27 40.6319 155.47 38.832 153.25 38.832Z" fill="white"/>
<path d="M168.16 29.9805H164.98C162.76 29.9805 160.96 31.7803 160.96 34.0005V114.06C160.96 116.281 162.76 118.08 164.98 118.08H168.16C170.38 118.08 172.18 116.281 172.18 114.06V34.0005C172.18 31.7803 170.38 29.9805 168.16 29.9805Z" fill="white"/>
<path d="M182.92 20.8008H179.35C176.854 20.8008 174.83 22.8245 174.83 25.3208V110.611C174.83 113.107 176.854 115.131 179.35 115.131H182.92C185.416 115.131 187.44 113.107 187.44 110.611V25.3208C187.44 22.8245 185.416 20.8008 182.92 20.8008Z" fill="white"/>
</g>
<mask id="mask2_1029_682" style="mask-type:luminance" maskUnits="userSpaceOnUse" x="102" y="105" width="86" height="84">
<path d="M102.24 188.44C108.12 188.44 116.54 187.85 126.17 185.01C142.32 180.26 153.28 171.77 158.9 166.72C164.92 161.31 172.59 152.87 178.46 140.82C185.61 126.15 186.86 112.8 187.01 105.32C158.75 105.35 130.49 105.38 102.23 105.41V188.43L102.24 188.44Z" fill="white"/>
</mask>
<g mask="url(#mask2_1029_682)">
<path d="M40.92 62.2916C43.13 62.6316 45.24 62.3216 47.09 61.5316C49.78 60.3716 52.88 60.8916 54.98 62.9316L58.7 66.5616C61.73 69.5216 63.43 73.5716 63.43 77.8016V94.9316C63.43 97.9716 62.2 100.882 60.03 103.002L50.36 112.442C48.8 113.962 46.62 114.772 44.47 114.422C43.21 114.212 41.87 114.222 40.5 114.492C35.95 115.392 32.35 119.132 31.67 123.722C30.54 131.302 37.04 137.712 44.64 136.432C49.38 135.642 53.14 131.722 53.77 126.952C53.99 125.272 53.84 123.652 53.39 122.162C52.55 119.412 53.39 116.422 55.45 114.402L60.2601 109.702C62.7301 107.292 66.0501 105.932 69.5101 105.932H92.88C96.84 105.932 100.64 107.482 103.47 110.242L109.43 116.062C111.29 117.872 112.2 120.512 111.65 123.042C111.38 124.292 111.31 125.612 111.5 126.982C112.17 131.772 115.97 135.682 120.74 136.432C128.34 137.622 134.8 131.142 133.56 123.542C132.78 118.742 128.81 114.952 123.98 114.342C122.59 114.162 121.24 114.252 119.97 114.552C117.53 115.132 114.96 114.552 113.17 112.792L107.1 106.862C103.61 103.452 101.64 98.7816 101.64 93.8916V76.2316C101.64 71.7816 103.44 67.5116 106.62 64.4016L109.27 61.8216C111.31 59.8216 114.45 59.4116 116.91 60.8616C118.96 62.0716 121.44 62.6416 124.06 62.2916C128.92 61.6516 132.87 57.7716 133.58 52.9216C134.75 44.9716 127.52 38.3116 119.45 40.4816C114.61 41.7816 111.38 46.3616 111.38 51.3716V51.4016C111.38 52.3216 111.01 53.2016 110.35 53.8416L100.27 63.6916C97.61 66.2816 94.05 67.7416 90.34 67.7416H71.63C68.68 67.7416 65.85 66.5916 63.74 64.5216L56.6501 57.6016C54.9401 55.9316 53.88 53.6516 53.88 51.2616C53.88 50.4816 53.8 49.6916 53.63 48.8816C52.66 44.3816 48.91 40.8516 44.34 40.2116C36.8 39.1516 30.44 45.6316 31.72 53.2016C32.5 57.8516 36.28 61.5616 40.94 62.2916H40.92Z" fill="white"/>
<path d="M121.97 157.612C118.79 158.562 115.31 159.062 111.76 158.852C108.23 158.602 104.61 157.792 101.15 156.342C100.3 155.952 99.6301 155.292 98.9401 154.692C98.2201 154.112 97.5401 153.502 96.8601 152.882C95.4601 151.692 94.2701 150.282 93.0401 148.922C90.7301 146.062 88.8401 142.882 87.3901 139.502C85.9901 136.092 85.1401 132.492 84.7201 128.842C84.4201 125.182 84.5701 121.502 85.2601 117.882C86.0301 114.292 87.2401 110.782 88.9601 107.532C90.7301 104.312 92.9301 101.342 95.5001 98.712C98.1301 96.142 101.1 93.942 104.32 92.172C107.57 90.452 111.07 89.242 114.67 88.472C118.29 87.782 121.97 87.632 125.63 87.932C129.28 88.352 132.88 89.202 136.29 90.602C139.67 92.052 142.85 93.942 145.71 96.252C147.07 97.482 148.48 98.662 149.67 100.072C150.29 100.742 150.9 101.432 151.47 102.152C152.07 102.842 152.72 103.522 153.08 104.382C154.49 107.862 155.32 111.452 155.56 114.992C155.59 116.782 155.64 118.502 155.4 120.222C155.3 121.072 155.21 121.912 154.99 122.742C154.81 123.572 154.61 124.382 154.39 125.182C153.77 123.602 153.38 122.062 152.6 120.632C152.24 119.912 152.01 119.192 151.58 118.522L150.42 116.542C148.72 114.012 146.86 111.792 144.76 109.942C144.51 109.702 144.25 109.472 144.06 109.202C143.87 108.932 143.71 108.622 143.53 108.342C143.19 107.752 142.69 107.292 142.24 106.782C141.38 105.742 140.33 104.892 139.34 103.972C137.23 102.282 134.9 100.902 132.44 99.832C129.95 98.812 127.31 98.202 124.64 97.882C121.95 97.672 119.24 97.782 116.59 98.272C113.96 98.852 111.4 99.722 109.02 100.982C106.67 102.292 104.49 103.902 102.55 105.782C100.67 107.722 99.0601 109.902 97.7501 112.252C96.4901 114.632 95.6201 117.192 95.0401 119.822C94.5501 122.472 94.4401 125.182 94.6501 127.872C94.9701 130.542 95.5801 133.182 96.6001 135.672C97.6701 138.142 99.0501 140.472 100.74 142.572C101.66 143.562 102.51 144.612 103.55 145.472C104.05 145.912 104.51 146.422 105.11 146.752C105.7 147.092 106.28 147.422 106.74 147.942C108.6 150.002 110.8 151.882 113.33 153.572C115.89 155.182 118.76 156.512 121.94 157.612H121.97Z" fill="white"/>
<path d="M149.47 202.172C155.407 202.172 160.22 197.359 160.22 191.422C160.22 185.485 155.407 180.672 149.47 180.672C143.533 180.672 138.72 185.485 138.72 191.422C138.72 197.359 143.533 202.172 149.47 202.172Z" fill="white"/>
<path d="M186.69 160.871C192.627 160.871 197.44 156.058 197.44 150.121C197.44 144.184 192.627 139.371 186.69 139.371C180.753 139.371 175.94 144.184 175.94 150.121C175.94 156.058 180.753 160.871 186.69 160.871Z" fill="white"/>
<path d="M184.93 157.95C184.94 174.2 171.91 187.23 155.63 187.23C139.46 187.23 126.44 174.21 126.42 158.03C126.4 141.79 139.46 128.74 155.72 128.75C171.89 128.75 184.91 141.78 184.93 157.95ZM148.54 153.21V162.76H162.86V153.21H148.54ZM162.3 148.15C161.51 143.5 160.61 139.08 157.99 135.28C156.41 132.99 154.93 132.99 153.38 135.26C150.74 139.11 149.81 143.54 149.08 148.15H162.3ZM149.06 167.83C149.84 172.46 150.74 176.87 153.35 180.69C154.9 182.96 156.43 182.98 157.97 180.73C160.6 176.88 161.55 172.45 162.26 167.83H149.06ZM167.87 162.86C171.55 162.86 175.04 162.9 178.52 162.81C178.95 162.8 179.72 162.11 179.73 161.71C179.85 159.25 179.79 156.78 179.8 154.32C179.8 153.37 179.32 153.08 178.42 153.1C175.77 153.14 173.13 153.11 170.48 153.11C169.61 153.11 168.74 153.11 167.87 153.11V162.86ZM143.47 153.12C139.78 153.12 136.23 153.09 132.68 153.16C132.31 153.16 131.64 153.75 131.63 154.08C131.55 156.72 131.56 159.36 131.63 162C131.63 162.29 132.15 162.81 132.44 162.81C136.09 162.87 139.75 162.85 143.48 162.85V153.13L143.47 153.12ZM143.8 148.13C145.01 143.69 146.19 139.38 147.38 135.02C141.02 137.45 136.33 141.72 133.34 148.13H143.79H143.8ZM177.86 148.13C175.74 142.31 168.37 135.64 164.04 135.27C165.18 139.45 166.34 143.72 167.54 148.13H177.86ZM147.38 180.95C146.18 176.58 145 172.28 143.79 167.85H133.33C136.39 174.27 141.04 178.55 147.38 180.95ZM163.98 180.96C170.34 178.52 175.01 174.24 178.02 167.85H167.54C166.34 172.27 165.18 176.54 163.97 180.96H163.98Z" fill="white"/>
<path d="M216.28 93.1024C216.29 109.352 203.26 122.382 186.98 122.382C170.81 122.382 157.79 109.362 157.77 93.1823C157.75 76.9423 170.81 63.8923 187.07 63.9023C203.24 63.9023 216.26 76.9324 216.28 93.1024ZM179.88 88.3724V97.9224H194.2V88.3724H179.88ZM193.65 83.3023C192.86 78.6523 191.96 74.2323 189.34 70.4323C187.76 68.1423 186.28 68.1424 184.73 70.4124C182.09 74.2624 181.16 78.6923 180.43 83.3023H193.65ZM180.41 102.992C181.19 107.622 182.09 112.032 184.7 115.852C186.25 118.122 187.78 118.142 189.32 115.892C191.95 112.042 192.9 107.612 193.61 102.992H180.41ZM199.22 98.0223C202.9 98.0223 206.39 98.0624 209.87 97.9724C210.3 97.9624 211.07 97.2723 211.08 96.8723C211.2 94.4123 211.14 91.9423 211.15 89.4823C211.15 88.5323 210.67 88.2423 209.77 88.2623C207.12 88.3023 204.48 88.2723 201.83 88.2723C200.96 88.2723 200.09 88.2723 199.22 88.2723V98.0223ZM174.82 88.2824C171.13 88.2824 167.58 88.2524 164.03 88.3224C163.66 88.3224 162.99 88.9123 162.98 89.2423C162.9 91.8823 162.91 94.5224 162.98 97.1624C162.98 97.4524 163.5 97.9724 163.79 97.9724C167.44 98.0324 171.1 98.0123 174.83 98.0123V88.2924L174.82 88.2824ZM175.15 83.2824C176.36 78.8424 177.54 74.5323 178.73 70.1723C172.37 72.6023 167.68 76.8724 164.69 83.2824H175.14H175.15ZM209.21 83.2824C207.09 77.4624 199.72 70.7923 195.39 70.4223C196.53 74.6023 197.69 78.8724 198.89 83.2824H209.21ZM178.73 116.112C177.53 111.742 176.35 107.442 175.14 103.012H164.68C167.74 109.432 172.39 113.712 178.73 116.112ZM195.32 116.122C201.68 113.682 206.35 109.402 209.36 103.012H198.88C197.68 107.432 196.52 111.702 195.31 116.122H195.32Z" fill="white"/>
<path d="M124.43 195.79C124.44 212.04 111.41 225.07 95.13 225.07C78.96 225.07 65.9399 212.05 65.9199 195.87C65.8999 179.63 78.9599 166.58 95.2199 166.59C111.39 166.59 124.41 179.62 124.43 195.79ZM88.04 191.06V200.61H102.36V191.06H88.04ZM101.8 185.99C101.01 181.34 100.11 176.92 97.49 173.12C95.91 170.83 94.43 170.83 92.88 173.1C90.24 176.95 89.3099 181.38 88.5799 185.99H101.8ZM88.5599 205.67C89.3399 210.3 90.24 214.71 92.85 218.53C94.4 220.8 95.9299 220.82 97.4699 218.57C100.1 214.72 101.05 210.29 101.76 205.67H88.5599ZM107.38 200.7C111.06 200.7 114.55 200.74 118.03 200.65C118.46 200.64 119.23 199.95 119.24 199.55C119.36 197.09 119.3 194.62 119.31 192.16C119.31 191.21 118.83 190.92 117.93 190.94C115.28 190.98 112.64 190.95 109.99 190.95C109.12 190.95 108.25 190.95 107.38 190.95V200.7ZM82.9799 190.96C79.2899 190.96 75.7399 190.93 72.1899 191C71.8199 191 71.1499 191.59 71.1399 191.92C71.0599 194.56 71.0699 197.2 71.1399 199.84C71.1399 200.13 71.6599 200.65 71.9499 200.65C75.5999 200.71 79.26 200.69 82.99 200.69V190.97L82.9799 190.96ZM83.3099 185.97C84.5199 181.53 85.6999 177.22 86.8899 172.86C80.5299 175.29 75.84 179.56 72.85 185.97H83.2999H83.3099ZM117.37 185.97C115.25 180.15 107.88 173.48 103.55 173.11C104.69 177.29 105.85 181.56 107.05 185.97H117.37ZM86.8899 218.8C85.6899 214.43 84.5099 210.13 83.2999 205.7H72.8399C75.8999 212.12 80.5499 216.4 86.8899 218.8ZM103.48 218.8C109.84 216.36 114.51 212.08 117.52 205.69H107.04C105.84 210.11 104.68 214.38 103.47 218.8H103.48Z" fill="white"/>
</g>
<mask id="mask3_1029_682" style="mask-type:luminance" maskUnits="userSpaceOnUse" x="18" y="105" width="85" height="84">
<path d="M102.77 188.44C96.89 188.44 88.47 187.85 78.84 185.01C62.69 180.26 51.73 171.77 46.11 166.72C40.09 161.31 32.42 152.87 26.55 140.82C19.4 126.15 18.15 112.8 18 105.32C46.26 105.35 74.52 105.38 102.78 105.41V188.43L102.77 188.44Z" fill="white"/>
</mask>
<g mask="url(#mask3_1029_682)">
<path d="M19.1599 105.551C33.9899 105.571 46.0199 117.571 46.1899 132.441C31.3599 132.421 19.3299 120.421 19.1599 105.551Z" fill="white"/>
<path d="M19.1599 162.641C33.9899 162.661 46.0199 174.661 46.1899 189.531C31.3599 189.511 19.3299 177.511 19.1599 162.641Z" fill="white"/>
<path d="M46.1899 133.82C46.1699 148.72 34.2299 160.81 19.4399 160.98C19.4599 146.08 31.3999 133.99 46.1899 133.82Z" fill="white"/>
<path d="M76.3499 105.551C91.1799 105.571 103.21 117.571 103.38 132.441C88.5499 132.421 76.5199 120.421 76.3499 105.551Z" fill="white"/>
<path d="M47.95 132.582C47.97 117.682 59.9099 105.592 74.6999 105.422C74.6799 120.322 62.74 132.412 47.95 132.582Z" fill="white"/>
<path d="M76.3499 162.641C91.1799 162.661 103.21 174.661 103.38 189.531C88.5499 189.511 76.5199 177.511 76.3499 162.641Z" fill="white"/>
<path d="M47.95 189.66C47.97 174.76 59.9099 162.67 74.6999 162.5C74.6799 177.4 62.74 189.49 47.95 189.66Z" fill="white"/>
<path d="M74.9799 160.843C60.1499 160.823 48.12 148.823 47.95 133.953C62.78 133.973 74.8099 145.973 74.9799 160.843Z" fill="white"/>
<path d="M103.38 133.82C103.36 148.72 91.4199 160.81 76.6299 160.98C76.6499 146.08 88.5899 133.99 103.38 133.82Z" fill="white"/>
<path d="M164.61 92.2422H1.06982V219.442H164.61V92.2422Z" fill="white"/>
</g>
</svg>
