<svg width="919" height="170" viewBox="0 0 919 170" fill="none" xmlns="http://www.w3.org/2000/svg">
<mask id="mask0_1029_595" style="mask-type:luminance" maskUnits="userSpaceOnUse" x="0" y="0" width="87" height="87">
<path d="M86.2701 0H0.100098V86.17H86.2701V0Z" fill="white"/>
</mask>
<g mask="url(#mask0_1029_595)">
<path d="M126.12 108.933C123.91 108.593 121.8 108.903 119.95 109.693C117.26 110.853 114.16 110.333 112.06 108.293L108.34 104.663C105.31 101.703 103.61 97.6527 103.61 93.4227V76.2927C103.61 73.2527 104.84 70.3427 107.01 68.2227L116.68 58.7827C118.24 57.2627 120.42 56.4527 122.57 56.8027C123.83 57.0127 125.17 57.0026 126.54 56.7326C131.09 55.8326 134.69 52.0927 135.37 47.5027C136.5 39.9227 130 33.5127 122.4 34.7927C117.66 35.5827 113.9 39.5027 113.27 44.2727C113.05 45.9527 113.2 47.5727 113.65 49.0627C114.49 51.8127 113.65 54.8027 111.59 56.8227L106.78 61.5227C104.31 63.9327 100.99 65.2927 97.53 65.2927H74.16C70.2 65.2927 66.4 63.7426 63.57 60.9826L57.61 55.1627C55.75 53.3527 54.84 50.7127 55.39 48.1827C55.66 46.9327 55.73 45.6127 55.54 44.2427C54.87 39.4527 51.07 35.5427 46.3 34.7927C38.7 33.6027 32.24 40.0827 33.48 47.6827C34.26 52.4827 38.23 56.2727 43.06 56.8827C44.45 57.0627 45.8 56.9726 47.07 56.6726C49.51 56.0926 52.08 56.6727 53.87 58.4327L59.94 64.3626C63.43 67.7726 65.4 72.4426 65.4 77.3326V94.9927C65.4 99.4427 63.6 103.713 60.42 106.823L57.77 109.403C55.73 111.403 52.59 111.813 50.13 110.363C48.08 109.153 45.6 108.583 42.98 108.933C38.12 109.573 34.17 113.453 33.46 118.303C32.29 126.253 39.52 132.913 47.59 130.743C52.43 129.443 55.66 124.863 55.66 119.853V119.823C55.66 118.903 56.03 118.023 56.69 117.383L66.77 107.533C69.43 104.943 72.99 103.483 76.7 103.483H95.41C98.36 103.483 101.19 104.633 103.3 106.703L110.39 113.623C112.1 115.293 113.16 117.573 113.16 119.963C113.16 120.743 113.24 121.533 113.41 122.343C114.38 126.843 118.13 130.373 122.7 131.013C130.24 132.073 136.6 125.593 135.32 118.023C134.54 113.373 130.76 109.663 126.1 108.933H126.12Z" fill="white"/>
<path d="M84.5901 42.4414C90.5271 42.4414 95.3401 37.6285 95.3401 31.6914C95.3401 25.7543 90.5271 20.9414 84.5901 20.9414C78.653 20.9414 73.8401 25.7543 73.8401 31.6914C73.8401 37.6285 78.653 42.4414 84.5901 42.4414Z" fill="white"/>
<path d="M39.04 12.5312C44.9771 12.5312 49.79 7.71831 49.79 1.78125C49.79 -4.15581 44.9771 -8.96875 39.04 -8.96875C33.103 -8.96875 28.29 -4.15581 28.29 1.78125C28.29 7.71831 33.103 12.5312 39.04 12.5312Z" fill="white"/>
<path d="M1.81006 53.832C7.74712 53.832 12.5601 49.0191 12.5601 43.082C12.5601 37.145 7.74712 32.332 1.81006 32.332C-4.127 32.332 -8.93994 37.145 -8.93994 43.082C-8.93994 49.0191 -4.127 53.832 1.81006 53.832Z" fill="white"/>
<path d="M36.1301 93.0508C42.0672 93.0508 46.8801 88.2379 46.8801 82.3008C46.8801 76.3638 42.0672 71.5508 36.1301 71.5508C30.1931 71.5508 25.3801 76.3638 25.3801 82.3008C25.3801 88.2379 30.1931 93.0508 36.1301 93.0508Z" fill="white"/>
<path d="M53.0101 13.1217C50.0401 15.8717 46.0801 18.8417 40.6401 19.7517C36.3101 20.4717 31.0801 16.8617 28.2501 14.8617C23.1801 11.2817 17.2601 11.0217 13.3201 15.2617C9.9501 18.8817 9.4101 24.0317 12.6301 28.7017C15.6501 33.0917 18.2101 36.7317 18.5901 41.1017C18.9301 45.0317 17.6601 49.1717 13.7001 55.2617C10.3701 60.3717 10.7001 65.7017 14.7401 69.4617C18.7801 73.2217 25.6001 73.1717 29.5501 68.9317C33.3401 64.8617 33.2601 58.9617 29.4801 54.5917C24.7901 49.0417 21.5201 37.4017 28.2901 30.1417C35.0601 22.8717 45.2301 23.3017 54.0101 28.6617C59.2401 31.9217 64.4201 31.6117 68.1701 27.5917C72.1101 23.3617 71.8801 16.7317 67.6401 12.7817C63.4701 8.90169 57.2501 9.0517 53.0201 13.1317L53.0101 13.1217Z" fill="white"/>
</g>
<mask id="mask1_1029_595" style="mask-type:luminance" maskUnits="userSpaceOnUse" x="86" y="0" width="84" height="87">
<path d="M169.42 0H86.6699V86.17H169.42V0Z" fill="white"/>
</mask>
<g mask="url(#mask1_1029_595)">
<path d="M95.0199 57.0391H92.1999C90.2282 57.0391 88.6299 58.6374 88.6299 60.609V115.399C88.6299 117.371 90.2282 118.969 92.1999 118.969H95.0199C96.9915 118.969 98.5899 117.371 98.5899 115.399V60.609C98.5899 58.6374 96.9915 57.0391 95.0199 57.0391Z" fill="white"/>
<path d="M107.33 44.8398H104.51C102.538 44.8398 100.94 46.4382 100.94 48.4099V103.2C100.94 105.171 102.538 106.77 104.51 106.77H107.33C109.302 106.77 110.9 105.171 110.9 103.2V48.4099C110.9 46.4382 109.302 44.8398 107.33 44.8398Z" fill="white"/>
<path d="M121.05 30.0312H117.87C115.65 30.0312 113.85 31.8311 113.85 34.0512V95.7612C113.85 97.9814 115.65 99.7812 117.87 99.7812H121.05C123.27 99.7812 125.07 97.9814 125.07 95.7612V34.0512C125.07 31.8311 123.27 30.0312 121.05 30.0312Z" fill="white"/>
<path d="M135.25 19.832H132.07C129.85 19.832 128.05 21.6319 128.05 23.8521V93.012C128.05 95.2322 129.85 97.032 132.07 97.032H135.25C137.47 97.032 139.27 95.2322 139.27 93.012V23.8521C139.27 21.6319 137.47 19.832 135.25 19.832Z" fill="white"/>
<path d="M150.16 10.9805H146.98C144.76 10.9805 142.96 12.7803 142.96 15.0005V95.0605C142.96 97.2806 144.76 99.0805 146.98 99.0805H150.16C152.38 99.0805 154.18 97.2806 154.18 95.0605V15.0005C154.18 12.7803 152.38 10.9805 150.16 10.9805Z" fill="white"/>
<path d="M164.92 1.80078H161.35C158.854 1.80078 156.83 3.82447 156.83 6.3208V91.6108C156.83 94.1071 158.854 96.1308 161.35 96.1308H164.92C167.416 96.1308 169.44 94.1071 169.44 91.6108V6.3208C169.44 3.82447 167.416 1.80078 164.92 1.80078Z" fill="white"/>
</g>
<mask id="mask2_1029_595" style="mask-type:luminance" maskUnits="userSpaceOnUse" x="84" y="86" width="86" height="84">
<path d="M84.24 169.44C90.12 169.44 98.54 168.85 108.17 166.01C124.32 161.26 135.28 152.77 140.9 147.72C146.92 142.31 154.59 133.87 160.46 121.82C167.61 107.15 168.86 93.8003 169.01 86.3203C140.75 86.3503 112.49 86.3803 84.23 86.4103V169.43L84.24 169.44Z" fill="white"/>
</mask>
<g mask="url(#mask2_1029_595)">
<path d="M22.92 43.2916C25.13 43.6316 27.24 43.3216 29.09 42.5316C31.78 41.3716 34.88 41.8916 36.98 43.9316L40.7 47.5616C43.73 50.5216 45.43 54.5716 45.43 58.8016V75.9316C45.43 78.9716 44.2 81.8816 42.03 84.0016L32.36 93.4416C30.8 94.9616 28.62 95.7716 26.47 95.4216C25.21 95.2116 23.87 95.2216 22.5 95.4916C17.95 96.3916 14.35 100.132 13.67 104.722C12.54 112.302 19.04 118.712 26.64 117.432C31.38 116.642 35.14 112.722 35.77 107.952C35.99 106.272 35.84 104.652 35.39 103.162C34.55 100.412 35.39 97.4216 37.45 95.4016L42.2601 90.7016C44.7301 88.2916 48.0501 86.9316 51.5101 86.9316H74.88C78.84 86.9316 82.64 88.4816 85.47 91.2416L91.4301 97.0616C93.2901 98.8716 94.2001 101.512 93.6501 104.042C93.3801 105.292 93.31 106.612 93.5 107.982C94.17 112.772 97.9701 116.682 102.74 117.432C110.34 118.622 116.8 112.142 115.56 104.542C114.78 99.7416 110.81 95.9516 105.98 95.3416C104.59 95.1616 103.24 95.2516 101.97 95.5516C99.53 96.1316 96.96 95.5516 95.17 93.7916L89.1001 87.8616C85.6101 84.4516 83.64 79.7816 83.64 74.8916V57.2316C83.64 52.7816 85.4401 48.5116 88.6201 45.4016L91.2701 42.8216C93.3101 40.8216 96.45 40.4116 98.91 41.8616C100.96 43.0716 103.44 43.6416 106.06 43.2916C110.92 42.6516 114.87 38.7716 115.58 33.9216C116.75 25.9716 109.52 19.3116 101.45 21.4816C96.61 22.7816 93.3801 27.3616 93.3801 32.3716V32.4016C93.3801 33.3216 93.0101 34.2016 92.3501 34.8416L82.2701 44.6916C79.61 47.2816 76.05 48.7416 72.34 48.7416H53.63C50.68 48.7416 47.85 47.5916 45.74 45.5216L38.6501 38.6016C36.9401 36.9316 35.88 34.6516 35.88 32.2616C35.88 31.4816 35.8 30.6916 35.63 29.8816C34.66 25.3816 30.91 21.8516 26.34 21.2116C18.8 20.1516 12.44 26.6316 13.72 34.2016C14.5 38.8516 18.28 42.5616 22.94 43.2916H22.92Z" fill="white"/>
<path d="M103.97 138.612C100.79 139.562 97.3101 140.062 93.7601 139.852C90.2301 139.602 86.6101 138.792 83.1501 137.342C82.3001 136.952 81.6301 136.292 80.9401 135.692C80.2201 135.112 79.5401 134.502 78.8601 133.882C77.4601 132.692 76.2701 131.282 75.0401 129.922C72.7301 127.062 70.8401 123.882 69.3901 120.502C67.9901 117.092 67.1401 113.492 66.7201 109.842C66.4201 106.182 66.5701 102.502 67.2601 98.882C68.0301 95.292 69.2401 91.782 70.9601 88.532C72.7301 85.312 74.9301 82.342 77.5001 79.712C80.1301 77.142 83.1001 74.942 86.3201 73.172C89.5701 71.452 93.0701 70.242 96.6701 69.472C100.29 68.782 103.97 68.632 107.63 68.932C111.28 69.352 114.88 70.202 118.29 71.602C121.67 73.052 124.85 74.942 127.71 77.252C129.07 78.482 130.48 79.662 131.67 81.072C132.29 81.742 132.9 82.432 133.47 83.152C134.07 83.842 134.72 84.522 135.08 85.382C136.49 88.862 137.32 92.452 137.56 95.992C137.59 97.782 137.64 99.502 137.4 101.222C137.3 102.072 137.21 102.912 136.99 103.742C136.81 104.572 136.61 105.382 136.39 106.182C135.77 104.602 135.38 103.062 134.6 101.632C134.24 100.912 134.01 100.192 133.58 99.522L132.42 97.542C130.72 95.012 128.86 92.792 126.76 90.942C126.51 90.702 126.25 90.472 126.06 90.202C125.87 89.932 125.71 89.622 125.53 89.342C125.19 88.752 124.69 88.292 124.24 87.782C123.38 86.742 122.33 85.892 121.34 84.972C119.23 83.282 116.9 81.902 114.44 80.832C111.95 79.812 109.31 79.202 106.64 78.882C103.95 78.672 101.24 78.782 98.5901 79.272C95.9601 79.852 93.4001 80.722 91.0201 81.982C88.6701 83.292 86.4901 84.902 84.5501 86.782C82.6701 88.722 81.0601 90.902 79.7501 93.252C78.4901 95.632 77.6201 98.192 77.0401 100.822C76.5501 103.472 76.4401 106.182 76.6501 108.872C76.9701 111.542 77.5801 114.182 78.6001 116.672C79.6701 119.142 81.0501 121.472 82.7401 123.572C83.6601 124.562 84.5101 125.612 85.5501 126.472C86.0501 126.912 86.5101 127.422 87.1101 127.752C87.7001 128.092 88.2801 128.422 88.7401 128.942C90.6001 131.002 92.8001 132.882 95.3301 134.572C97.8901 136.182 100.76 137.512 103.94 138.612H103.97Z" fill="white"/>
<path d="M131.47 183.172C137.407 183.172 142.22 178.359 142.22 172.422C142.22 166.485 137.407 161.672 131.47 161.672C125.533 161.672 120.72 166.485 120.72 172.422C120.72 178.359 125.533 183.172 131.47 183.172Z" fill="white"/>
<path d="M168.69 141.871C174.627 141.871 179.44 137.058 179.44 131.121C179.44 125.184 174.627 120.371 168.69 120.371C162.753 120.371 157.94 125.184 157.94 131.121C157.94 137.058 162.753 141.871 168.69 141.871Z" fill="white"/>
<path d="M166.93 138.95C166.94 155.2 153.91 168.23 137.63 168.23C121.46 168.23 108.44 155.21 108.42 139.03C108.4 122.79 121.46 109.74 137.72 109.75C153.89 109.75 166.91 122.78 166.93 138.95ZM130.54 134.21V143.76H144.86V134.21H130.54ZM144.3 129.15C143.51 124.5 142.61 120.08 139.99 116.28C138.41 113.99 136.93 113.99 135.38 116.26C132.74 120.11 131.81 124.54 131.08 129.15H144.3ZM131.06 148.83C131.84 153.46 132.74 157.87 135.35 161.69C136.9 163.96 138.43 163.98 139.97 161.73C142.6 157.88 143.55 153.45 144.26 148.83H131.06ZM149.87 143.86C153.55 143.86 157.04 143.9 160.52 143.81C160.95 143.8 161.72 143.11 161.73 142.71C161.85 140.25 161.79 137.78 161.8 135.32C161.8 134.37 161.32 134.08 160.42 134.1C157.77 134.14 155.13 134.11 152.48 134.11C151.61 134.11 150.74 134.11 149.87 134.11V143.86ZM125.47 134.12C121.78 134.12 118.23 134.09 114.68 134.16C114.31 134.16 113.64 134.75 113.63 135.08C113.55 137.72 113.56 140.36 113.63 143C113.63 143.29 114.15 143.81 114.44 143.81C118.09 143.87 121.75 143.85 125.48 143.85V134.13L125.47 134.12ZM125.8 129.13C127.01 124.69 128.19 120.38 129.38 116.02C123.02 118.45 118.33 122.72 115.34 129.13H125.79H125.8ZM159.86 129.13C157.74 123.31 150.37 116.64 146.04 116.27C147.18 120.45 148.34 124.72 149.54 129.13H159.86ZM129.38 161.95C128.18 157.58 127 153.28 125.79 148.85H115.33C118.39 155.27 123.04 159.55 129.38 161.95ZM145.98 161.96C152.34 159.52 157.01 155.24 160.02 148.85H149.54C148.34 153.27 147.18 157.54 145.97 161.96H145.98Z" fill="white"/>
<path d="M198.28 74.1024C198.29 90.3524 185.26 103.382 168.98 103.382C152.81 103.382 139.79 90.3623 139.77 74.1823C139.75 57.9423 152.81 44.8923 169.07 44.9023C185.24 44.9023 198.26 57.9324 198.28 74.1024ZM161.88 69.3724V78.9224H176.2V69.3724H161.88ZM175.65 64.3023C174.86 59.6523 173.96 55.2323 171.34 51.4323C169.76 49.1423 168.28 49.1424 166.73 51.4124C164.09 55.2624 163.16 59.6923 162.43 64.3023H175.65ZM162.41 83.9924C163.19 88.6224 164.09 93.0324 166.7 96.8524C168.25 99.1224 169.78 99.1423 171.32 96.8923C173.95 93.0423 174.9 88.6124 175.61 83.9924H162.41ZM181.22 79.0223C184.9 79.0223 188.39 79.0624 191.87 78.9724C192.3 78.9624 193.07 78.2723 193.08 77.8723C193.2 75.4123 193.14 72.9423 193.15 70.4823C193.15 69.5323 192.67 69.2423 191.77 69.2623C189.12 69.3023 186.48 69.2723 183.83 69.2723C182.96 69.2723 182.09 69.2723 181.22 69.2723V79.0223ZM156.82 69.2824C153.13 69.2824 149.58 69.2524 146.03 69.3224C145.66 69.3224 144.99 69.9123 144.98 70.2423C144.9 72.8823 144.91 75.5224 144.98 78.1624C144.98 78.4524 145.5 78.9724 145.79 78.9724C149.44 79.0324 153.1 79.0123 156.83 79.0123V69.2924L156.82 69.2824ZM157.15 64.2824C158.36 59.8424 159.54 55.5323 160.73 51.1723C154.37 53.6023 149.68 57.8724 146.69 64.2824H157.14H157.15ZM191.21 64.2824C189.09 58.4624 181.72 51.7923 177.39 51.4223C178.53 55.6023 179.69 59.8724 180.89 64.2824H191.21ZM160.73 97.1124C159.53 92.7424 158.35 88.4423 157.14 84.0123H146.68C149.74 90.4323 154.39 94.7124 160.73 97.1124ZM177.32 97.1223C183.68 94.6823 188.35 90.4023 191.36 84.0123H180.88C179.68 88.4323 178.52 92.7023 177.31 97.1223H177.32Z" fill="white"/>
<path d="M106.43 176.79C106.44 193.04 93.41 206.07 77.13 206.07C60.96 206.07 47.9399 193.05 47.9199 176.87C47.8999 160.63 60.9599 147.58 77.2199 147.59C93.3899 147.59 106.41 160.62 106.43 176.79ZM70.04 172.06V181.61H84.3599V172.06H70.04ZM83.7999 166.99C83.0099 162.34 82.11 157.92 79.49 154.12C77.91 151.83 76.43 151.83 74.88 154.1C72.24 157.95 71.3099 162.38 70.5799 166.99H83.7999ZM70.5599 186.67C71.3399 191.3 72.24 195.71 74.85 199.53C76.4 201.8 77.9299 201.82 79.4699 199.57C82.0999 195.72 83.05 191.29 83.76 186.67H70.5599ZM89.38 181.7C93.06 181.7 96.5499 181.74 100.03 181.65C100.46 181.64 101.23 180.95 101.24 180.55C101.36 178.09 101.3 175.62 101.31 173.16C101.31 172.21 100.83 171.92 99.93 171.94C97.28 171.98 94.64 171.95 91.99 171.95C91.12 171.95 90.25 171.95 89.38 171.95V181.7ZM64.9799 171.96C61.2899 171.96 57.7399 171.93 54.1899 172C53.8199 172 53.1499 172.59 53.1399 172.92C53.0599 175.56 53.0699 178.2 53.1399 180.84C53.1399 181.13 53.6599 181.65 53.9499 181.65C57.5999 181.71 61.26 181.69 64.99 181.69V171.97L64.9799 171.96ZM65.3099 166.97C66.5199 162.53 67.6999 158.22 68.8899 153.86C62.5299 156.29 57.84 160.56 54.85 166.97H65.2999H65.3099ZM99.37 166.97C97.25 161.15 89.8799 154.48 85.5499 154.11C86.6899 158.29 87.8499 162.56 89.0499 166.97H99.37ZM68.8899 199.8C67.6899 195.43 66.5099 191.13 65.2999 186.7H54.8399C57.8999 193.12 62.5499 197.4 68.8899 199.8ZM85.4799 199.8C91.8399 197.36 96.51 193.08 99.52 186.69H89.04C87.84 191.11 86.6799 195.38 85.4699 199.8H85.4799Z" fill="white"/>
</g>
<mask id="mask3_1029_595" style="mask-type:luminance" maskUnits="userSpaceOnUse" x="0" y="86" width="85" height="84">
<path d="M84.77 169.44C78.89 169.44 70.47 168.85 60.84 166.01C44.69 161.26 33.73 152.77 28.11 147.72C22.09 142.31 14.42 133.87 8.55 121.82C1.4 107.15 0.15 93.8003 0 86.3203C28.26 86.3503 56.52 86.3803 84.78 86.4103V169.43L84.77 169.44Z" fill="white"/>
</mask>
<g mask="url(#mask3_1029_595)">
<path d="M1.15991 86.5508C15.9899 86.5708 28.0199 98.5707 28.1899 113.441C13.3599 113.421 1.32991 101.421 1.15991 86.5508Z" fill="white"/>
<path d="M1.15991 143.641C15.9899 143.661 28.0199 155.661 28.1899 170.531C13.3599 170.511 1.32991 158.511 1.15991 143.641Z" fill="white"/>
<path d="M28.1899 114.82C28.1699 129.72 16.2299 141.81 1.43994 141.98C1.45994 127.08 13.3999 114.99 28.1899 114.82Z" fill="white"/>
<path d="M58.3499 86.5508C73.1799 86.5708 85.2099 98.5707 85.3799 113.441C70.5499 113.421 58.5199 101.421 58.3499 86.5508Z" fill="white"/>
<path d="M29.95 113.582C29.97 98.6818 41.9099 86.5919 56.6999 86.4219C56.6799 101.322 44.74 113.412 29.95 113.582Z" fill="white"/>
<path d="M58.3499 143.641C73.1799 143.661 85.2099 155.661 85.3799 170.531C70.5499 170.511 58.5199 158.511 58.3499 143.641Z" fill="white"/>
<path d="M29.95 170.66C29.97 155.76 41.9099 143.67 56.6999 143.5C56.6799 158.4 44.74 170.49 29.95 170.66Z" fill="white"/>
<path d="M56.9799 141.843C42.1499 141.823 30.12 129.823 29.95 114.953C44.78 114.973 56.8099 126.973 56.9799 141.843Z" fill="white"/>
<path d="M85.3799 114.82C85.3599 129.72 73.4199 141.81 58.6299 141.98C58.6499 127.08 70.5899 114.99 85.3799 114.82Z" fill="white"/>
<path d="M146.61 73.2422H-16.9302V200.442H146.61V73.2422Z" fill="white"/>
</g>
<path d="M265.64 71.7115C272.04 78.1115 275.24 87.1915 275.24 98.9415V166.672H250.29V103.102C250.29 90.1616 243.89 83.6915 231.08 83.6915C224.74 83.6915 219.36 85.9715 214.94 90.5215C210.52 95.0715 208.31 101.382 208.31 109.432V166.662H183.36V64.4815H207.52V79.1315C215.31 67.7815 225.94 62.1016 239.4 62.1016C250.49 62.1016 259.24 65.3015 265.64 71.7015V71.7115Z" fill="white"/>
<path d="M290.49 166.674V64.4937H315.44V166.674H290.49ZM290.69 51.2137V27.8438H315.25V51.2137H290.69Z" fill="white"/>
<path d="M398.82 64.4805H424.76L386.74 166.66H358.03L320.21 64.4805H346.94L356.84 92.0105C361.46 106.4 366.81 123.76 372.88 144.09C377.76 127.72 383.11 110.29 388.92 91.8105L398.82 64.4805Z" fill="white"/>
<path d="M484.77 25.6719C507.35 25.6719 524.77 31.9419 537.05 44.4819C549.33 57.1519 555.47 74.3819 555.47 96.1719C555.47 117.962 549.33 135.122 537.05 147.662C524.77 160.332 507.35 166.672 484.77 166.672H430.91V25.6719H484.77ZM484.37 143.692C498.23 143.692 508.93 139.632 516.45 131.512C523.98 123.392 527.74 111.612 527.74 96.1619C527.74 80.7119 523.98 68.9319 516.45 60.8119C508.92 52.6919 498.23 48.6319 484.37 48.6319H457.64V143.682H484.37V143.692Z" fill="white"/>
<path d="M631.71 166.671C630.52 164.561 629.6 160.401 628.94 154.191C622.07 164.091 611.12 169.041 596.07 169.041C584.85 169.041 575.9 166.331 569.24 160.921C562.57 155.511 559.24 147.981 559.24 138.351C559.24 119.731 572.31 109.111 598.45 106.471L613.9 105.081C619.05 104.421 622.75 103.201 624.99 101.421C627.23 99.6411 628.36 96.9611 628.36 93.4011C628.36 89.0411 626.94 85.8411 624.1 83.8011C621.26 81.7511 616.48 80.7311 609.74 80.7311C602.48 80.7311 597.26 81.9511 594.1 84.3911C590.93 86.8311 589.08 91.0211 588.56 96.9711H564C565.45 73.7311 580.77 62.1211 609.94 62.1211C639.11 62.1211 652.52 72.3511 652.52 92.8211V147.281C652.52 156.261 653.91 162.731 656.68 166.691H631.73L631.71 166.671ZM621.01 144.781C625.9 140.491 628.34 134.321 628.34 126.261V116.951C625.96 119.061 622.07 120.451 616.66 121.111L603.19 122.691C596.59 123.481 591.87 125.031 589.03 127.341C586.19 129.651 584.77 132.981 584.77 137.341C584.77 141.701 586.25 145.101 589.23 147.541C592.2 149.981 596.46 151.201 602 151.201C609.79 151.201 616.13 149.051 621.01 144.761V144.781Z" fill="white"/>
<path d="M716.66 83.4913H696.46V138.741C696.46 142.041 697.35 144.351 699.13 145.671C700.91 146.991 703.92 147.651 708.14 147.651H716.66V166.661C711.25 167.191 706.89 167.451 703.59 167.451C692.5 167.451 684.41 165.371 679.33 161.211C674.25 157.051 671.71 150.421 671.71 141.311V83.4913H655.87V64.4812H671.71V34.7812H696.46V64.4812H716.66V83.4913Z" fill="white"/>
<path d="M771.92 169.041C756.34 169.041 743.8 164.161 734.29 154.391C724.65 144.751 719.83 131.811 719.83 115.581C719.83 99.3511 724.65 86.4011 734.29 76.7711C743.8 67.0011 756.34 62.1211 771.92 62.1211C787.5 62.1211 800.04 66.9411 809.55 76.5811C819.06 86.2211 823.81 99.2211 823.81 115.591C823.81 131.961 819.06 144.631 809.55 154.401C800.04 164.171 787.5 169.051 771.92 169.051V169.041ZM791.42 139.831C796.11 134.091 798.45 126.001 798.45 115.571C798.45 105.141 796.11 97.0511 791.42 91.3111C786.73 85.5711 780.23 82.7011 771.91 82.7011C763.59 82.7011 757.09 85.5411 752.4 91.2211C747.71 96.9011 745.37 105.021 745.37 115.581C745.37 126.141 747.71 134.261 752.4 139.941C757.09 145.621 763.59 148.461 771.91 148.461C780.23 148.461 786.73 145.591 791.42 139.851V139.831Z" fill="white"/>
<path d="M826.77 134.193H851.13C851.79 140.533 853.87 145.023 857.37 147.663C860.87 150.303 866.38 151.623 873.91 151.623C887.38 151.623 894.11 147.533 894.11 139.343C894.11 135.643 892.66 132.803 889.75 130.823C886.85 128.843 881.63 127.193 874.11 125.873L862.43 123.893C840.12 120.193 828.96 109.903 828.96 93.0033C828.96 83.3633 832.66 75.8033 840.05 70.3333C847.44 64.8533 857.87 62.1133 871.34 62.1133C900.52 62.1133 915.57 73.6633 916.49 96.7733H892.92C892.66 90.7033 890.74 86.3733 887.18 83.8033C883.62 81.2333 878.33 79.9433 871.34 79.9433C859.46 79.9433 853.52 83.9033 853.52 91.8233C853.52 95.2533 854.84 97.9333 857.48 99.8433C860.12 101.763 864.48 103.243 870.55 104.303L883.42 106.283C895.83 108.523 904.84 112.093 910.45 116.973C916.06 121.853 918.87 128.653 918.87 137.373C918.87 147.673 914.91 155.593 906.99 161.133C899.07 166.673 887.91 169.453 873.52 169.453C843.68 169.453 828.1 157.703 826.78 134.203L826.77 134.193Z" fill="white"/>
</svg>
