<svg width="72" height="68" viewBox="0 0 72 68" fill="none" xmlns="http://www.w3.org/2000/svg">
    <g opacity="0.2" clip-path="url(#clip0_534_418)">
        <path opacity="0.4"
            d="M37 0C31.898 0 27.75 4.14805 27.75 9.25V18.5H9.25C4.14805 18.5 0 22.648 0 27.75V64.75C0 69.852 4.14805 74 9.25 74H37H64.75C69.852 74 74 69.852 74 64.75V27.75V9.25C74 4.14805 69.852 0 64.75 0H37ZM9.25 43.9375C9.25 42.6656 10.2906 41.625 11.5625 41.625H16.1875C17.4594 41.625 18.5 42.6656 18.5 43.9375V48.5625C18.5 49.8344 17.4594 50.875 16.1875 50.875H11.5625C10.2906 50.875 9.25 49.8344 9.25 48.5625V43.9375ZM39.3125 46.25C38.0406 46.25 37 45.2094 37 43.9375V39.3125C37 38.0406 38.0406 37 39.3125 37H43.9375C45.2094 37 46.25 38.0406 46.25 39.3125V43.9375C46.25 45.2094 45.2094 46.25 43.9375 46.25H39.3125ZM55.5 43.9375V39.3125C55.5 38.0406 56.5406 37 57.8125 37H62.4375C63.7094 37 64.75 38.0406 64.75 39.3125V43.9375C64.75 45.2094 63.7094 46.25 62.4375 46.25H57.8125C56.5406 46.25 55.5 45.2094 55.5 43.9375ZM11.5625 27.75H16.1875C17.4594 27.75 18.5 28.7906 18.5 30.0625V34.6875C18.5 35.9594 17.4594 37 16.1875 37H11.5625C10.2906 37 9.25 35.9594 9.25 34.6875V30.0625C9.25 28.7906 10.2906 27.75 11.5625 27.75ZM37 11.5625C37 10.2906 38.0406 9.25 39.3125 9.25H43.9375C45.2094 9.25 46.25 10.2906 46.25 11.5625V16.1875C46.25 17.4594 45.2094 18.5 43.9375 18.5H39.3125C38.0406 18.5 37 17.4594 37 16.1875V11.5625ZM57.8125 9.25H62.4375C63.7094 9.25 64.75 10.2906 64.75 11.5625V16.1875C64.75 17.4594 63.7094 18.5 62.4375 18.5H57.8125C56.5406 18.5 55.5 17.4594 55.5 16.1875V11.5625C55.5 10.2906 56.5406 9.25 57.8125 9.25ZM37 30.0625V25.4375C37 24.1656 38.0406 23.125 39.3125 23.125H43.9375C45.2094 23.125 46.25 24.1656 46.25 25.4375V30.0625C46.25 31.3344 45.2094 32.375 43.9375 32.375H39.3125C38.0406 32.375 37 31.3344 37 30.0625ZM57.8125 32.375C56.5406 32.375 55.5 31.3344 55.5 30.0625V25.4375C55.5 24.1656 56.5406 23.125 57.8125 23.125H62.4375C63.7094 23.125 64.75 24.1656 64.75 25.4375V30.0625C64.75 31.3344 63.7094 32.375 62.4375 32.375H57.8125Z"
            className='fill-white sm:fill-[#009090]' />
        <path
            d="M37 11.5625C37 10.2906 38.0406 9.25 39.3125 9.25H43.9375C45.2094 9.25 46.25 10.2906 46.25 11.5625V16.1875C46.25 17.4594 45.2094 18.5 43.9375 18.5H39.3125C38.0406 18.5 37 17.4594 37 16.1875V11.5625ZM11.5625 27.75H16.1875C17.4594 27.75 18.5 28.7906 18.5 30.0625V34.6875C18.5 35.9594 17.4594 37 16.1875 37H11.5625C10.2906 37 9.25 35.9594 9.25 34.6875V30.0625C9.25 28.7906 10.2906 27.75 11.5625 27.75ZM39.3125 46.25C38.0406 46.25 37 45.2094 37 43.9375V39.3125C37 38.0406 38.0406 37 39.3125 37H43.9375C45.2094 37 46.25 38.0406 46.25 39.3125V43.9375C46.25 45.2094 45.2094 46.25 43.9375 46.25H39.3125ZM11.5625 41.625H16.1875C17.4594 41.625 18.5 42.6656 18.5 43.9375V48.5625C18.5 49.8344 17.4594 50.875 16.1875 50.875H11.5625C10.2906 50.875 9.25 49.8344 9.25 48.5625V43.9375C9.25 42.6656 10.2906 41.625 11.5625 41.625ZM55.5 43.9375V39.3125C55.5 38.0406 56.5406 37 57.8125 37H62.4375C63.7094 37 64.75 38.0406 64.75 39.3125V43.9375C64.75 45.2094 63.7094 46.25 62.4375 46.25H57.8125C56.5406 46.25 55.5 45.2094 55.5 43.9375ZM57.8125 9.25H62.4375C63.7094 9.25 64.75 10.2906 64.75 11.5625V16.1875C64.75 17.4594 63.7094 18.5 62.4375 18.5H57.8125C56.5406 18.5 55.5 17.4594 55.5 16.1875V11.5625C55.5 10.2906 56.5406 9.25 57.8125 9.25ZM37 30.0625V25.4375C37 24.1656 38.0406 23.125 39.3125 23.125H43.9375C45.2094 23.125 46.25 24.1656 46.25 25.4375V30.0625C46.25 31.3344 45.2094 32.375 43.9375 32.375H39.3125C38.0406 32.375 37 31.3344 37 30.0625ZM57.8125 32.375C56.5406 32.375 55.5 31.3344 55.5 30.0625V25.4375C55.5 24.1656 56.5406 23.125 57.8125 23.125H62.4375C63.7094 23.125 64.75 24.1656 64.75 25.4375V30.0625C64.75 31.3344 63.7094 32.375 62.4375 32.375H57.8125Z"
            className='fill-white sm:fill-[#009090]' />
    </g>
    <defs>
        <clipPath id="clip0_534_418">
            <rect width="74" height="74" fill="white" />
        </clipPath>
    </defs>
</svg>