<svg width="60" height="74" viewBox="0 0 60 74" fill="none" xmlns="http://www.w3.org/2000/svg">
    <g opacity="0.2" clip-path="url(#clip0_534_436)">
        <path opacity="0.4"
            d="M18.2771 10.7479C18.2932 10.6182 18.3255 10.4885 18.3417 10.375H10.3333C4.63385 10.375 0 15.0275 0 20.75V72.625C0 78.3475 4.63385 83 10.3333 83H51.6667C57.3661 83 62 78.3475 62 72.625V20.75C62 15.0275 57.3661 10.375 51.6667 10.375H43.6583C43.6906 10.5047 43.7068 10.6344 43.7229 10.7479C46.8391 11.7691 49.0833 14.7033 49.0833 18.1562V22.0469C49.0833 24.2029 47.3557 25.9375 45.2083 25.9375H31H16.7917C14.6443 25.9375 12.9167 24.2029 12.9167 22.0469V18.1562C12.9167 14.7033 15.1609 11.7691 18.2771 10.7479ZM30.2573 37.0582C31.2583 38.0633 31.2583 39.7168 30.2573 40.7219L19.924 51.0969C18.9229 52.102 17.276 52.102 16.275 51.0969L11.1083 45.9094C10.1073 44.9043 10.1073 43.2508 11.1083 42.2457C12.1094 41.2406 13.7562 41.2406 14.7573 42.2457L18.0833 45.6176L26.5922 37.0744C27.5932 36.0693 29.2401 36.0693 30.2411 37.0744L30.2573 37.0582ZM31 49.2812C31 47.8547 32.1625 46.6875 33.5833 46.6875H49.0833C50.5042 46.6875 51.6667 47.8547 51.6667 49.2812C51.6667 50.7078 50.5042 51.875 49.0833 51.875H33.5833C32.1625 51.875 31 50.7078 31 49.2812ZM49.0833 62.25C50.5042 62.25 51.6667 63.4172 51.6667 64.8438C51.6667 66.2703 50.5042 67.4375 49.0833 67.4375H28.4167C26.9958 67.4375 25.8333 66.2703 25.8333 64.8438C25.8333 63.4172 26.9958 62.25 28.4167 62.25H49.0833ZM11.625 64.8438C11.625 63.8119 12.0333 62.8223 12.76 62.0927C13.4867 61.363 14.4723 60.9531 15.5 60.9531C16.5277 60.9531 17.5133 61.363 18.24 62.0927C18.9667 62.8223 19.375 63.8119 19.375 64.8438C19.375 65.8756 18.9667 66.8652 18.24 67.5948C17.5133 68.3245 16.5277 68.7344 15.5 68.7344C14.4723 68.7344 13.4867 68.3245 12.76 67.5948C12.0333 66.8652 11.625 65.8756 11.625 64.8438Z"
            className='fill-white sm:fill-[#009090]' />
        <path
            d="M18.2775 10.7479C19.3108 4.65254 24.6228 0 31.0004 0C37.378 0 42.69 4.65254 43.7233 10.7479C46.8395 11.7691 49.0837 14.7033 49.0837 18.1562V22.0469C49.0837 24.2029 47.3561 25.9375 45.2087 25.9375H31.0004H16.7921C14.6447 25.9375 12.9171 24.2029 12.9171 22.0469V18.1562C12.9171 14.7033 15.1613 11.7691 18.2775 10.7479ZM34.8754 12.9688C34.8754 11.9369 34.4671 10.9473 33.7404 10.2177C33.0137 9.48803 32.0281 9.07812 31.0004 9.07812C29.9727 9.07812 28.9871 9.48803 28.2604 10.2177C27.5336 10.9473 27.1254 11.9369 27.1254 12.9688C27.1254 14.0006 27.5336 14.9902 28.2604 15.7198C28.9871 16.4495 29.9727 16.8594 31.0004 16.8594C32.0281 16.8594 33.0137 16.4495 33.7404 15.7198C34.4671 14.9902 34.8754 14.0006 34.8754 12.9688ZM30.2415 37.0744C31.2426 38.0795 31.2426 39.733 30.2415 40.7381L19.9082 51.1131C18.9072 52.1182 17.2603 52.1182 16.2592 51.1131L11.0926 45.9256C10.0915 44.9205 10.0915 43.267 11.0926 42.2619C12.0936 41.2568 13.7405 41.2568 14.7415 42.2619L18.0837 45.6176L26.5926 37.0744C27.5936 36.0693 29.2405 36.0693 30.2415 37.0744ZM11.6254 64.8438C11.6254 63.8119 12.0336 62.8223 12.7604 62.0927C13.4871 61.363 14.4727 60.9531 15.5004 60.9531C16.5281 60.9531 17.5137 61.363 18.2404 62.0927C18.9671 62.8223 19.3754 63.8119 19.3754 64.8438C19.3754 65.8756 18.9671 66.8652 18.2404 67.5948C17.5137 68.3245 16.5281 68.7344 15.5004 68.7344C14.4727 68.7344 13.4871 68.3245 12.7604 67.5948C12.0336 66.8652 11.6254 65.8756 11.6254 64.8438Z"
            className='fill-white sm:fill-[#009090]' />
    </g>
    <defs>
        <clipPath id="clip0_534_436">
            <rect width="62" height="83" fill="white" />
        </clipPath>
    </defs>
</svg>