<svg width="68" height="72" viewBox="0 0 68 72" fill="none" xmlns="http://www.w3.org/2000/svg">
<g opacity="0.2" clip-path="url(#clip0_534_430)">
<path opacity="0.4" d="M3.64102 22.5164L10.207 32.3578C11.4867 34.2773 13.4215 35.6941 15.6457 36.3187L24.832 38.9543C27.4523 39.7008 29.25 42.0926 29.25 44.8195V50.898C29.25 52.5738 30.1945 54.0973 31.6875 54.8438C33.1805 55.5902 34.125 57.1137 34.125 58.7895V64.7309C34.125 67.1074 36.3949 68.8289 38.6801 68.1738C41.1328 67.473 43.0371 65.5078 43.6617 63.0246L44.0883 61.3184C44.7281 58.7438 46.4039 56.5348 48.7043 55.2246L49.9383 54.5238C52.2234 53.2289 53.625 50.7914 53.625 48.1711V46.9066C53.625 44.9719 52.848 43.1133 51.477 41.7422L50.8828 41.148C49.5117 39.777 47.6531 39 45.7184 39H39.1523C37.4613 39 35.7855 38.5582 34.3078 37.7203L29.052 34.7191C28.3969 34.3383 27.8941 33.7289 27.6504 33.0129C27.1629 31.5504 27.818 29.966 29.2043 29.2805L30.1031 28.8234C31.1086 28.3207 32.2816 28.2293 33.348 28.5949L36.8824 29.768C38.1316 30.1793 39.5027 29.707 40.2188 28.6254C40.9348 27.559 40.8586 26.1422 40.0359 25.152L37.9641 22.6688C36.4406 20.8406 36.4559 18.1746 38.0098 16.377L40.4625 13.5129C41.7727 11.9895 42.0164 9.81094 41.0566 8.02852L36.7758 0.0609375C37.507 0.0152344 38.2535 0 39 0C53.823 0 66.7266 8.27227 73.323 20.4598L62.6285 25.0453C60.2977 26.0508 59.1246 28.6559 59.9168 31.0629L62.598 39.1219C63.0855 40.5844 64.2281 41.727 65.6754 42.1992L77.3449 46.084C74.0238 64.2434 58.1191 78 39 78C17.4586 78 0 60.5414 0 39C0 33.1195 1.31016 27.5285 3.64102 22.5164Z" fill="#009090"/>
<path d="M36.7926 0.0625C22.0914 0.885156 9.55352 9.8582 3.64258 22.518L10.2086 32.3594C11.4883 34.2789 13.423 35.6957 15.6473 36.3203L24.8336 38.9559C27.4539 39.7023 29.2516 42.0941 29.2516 44.8211V50.8996C29.2516 52.5754 30.1961 54.0988 31.6891 54.8453C33.182 55.5918 34.1266 57.1152 34.1266 58.791V64.7324C34.1266 67.109 36.3965 68.8305 38.6816 68.1754C41.1344 67.4746 43.0387 65.5094 43.6633 63.0262L44.0898 61.3199C44.7297 58.7453 46.4055 56.5363 48.7059 55.2262L49.9398 54.5254C52.225 53.2305 53.6266 50.793 53.6266 48.1727V46.9082C53.6266 44.9734 52.8496 43.1148 51.4785 41.7438L50.8844 41.1496C49.5133 39.7785 47.6547 39.0016 45.7199 39.0016H39.1539C37.4629 39.0016 35.7871 38.5598 34.3094 37.7219L29.0535 34.7207C28.3984 34.3398 27.8957 33.7305 27.652 33.0145C27.1645 31.552 27.8195 29.9676 29.2059 29.282L30.1047 28.825C31.1102 28.3223 32.2832 28.2309 33.3496 28.5965L36.884 29.7695C38.1332 30.1809 39.5043 29.7086 40.2203 28.627C40.9363 27.5605 40.8602 26.1438 40.0375 25.1535L37.9656 22.6703C36.4422 20.8422 36.4574 18.1762 38.0113 16.3785L40.4641 13.5145C41.7742 11.991 42.018 9.8125 41.0582 8.03008L36.7926 0.0625ZM73.3246 20.4613L62.6301 25.0469C60.2992 26.0523 59.1262 28.6574 59.9184 31.0645L62.5996 39.1234C63.0871 40.5859 64.2297 41.7285 65.677 42.2008L77.3465 46.0855C77.773 43.7852 77.9863 41.4086 77.9863 38.9863C77.9863 32.2832 76.2953 25.9609 73.3094 20.4461L73.3246 20.4613Z" fill="#009090"/>
</g>
<defs>
<clipPath id="clip0_534_430">
<rect width="78" height="78" fill="white"/>
</clipPath>
</defs>
</svg>
