<svg width="62" height="63" viewBox="0 0 62 63" fill="none" xmlns="http://www.w3.org/2000/svg">
    <g opacity="0.2" clip-path="url(#clip0_534_424)">
        <path opacity="0.4"
            d="M22.5625 0C20.5883 0 19 1.58828 19 3.5625V9.5H26.125V3.5625C26.125 1.58828 24.5367 0 22.5625 0ZM34.4375 3.5625V9.5H41.5625V3.5625C41.5625 1.58828 39.9742 0 38 0C36.0258 0 34.4375 1.58828 34.4375 3.5625ZM49.875 3.5625V9.5H57V3.5625C57 1.58828 55.4117 0 53.4375 0C51.4633 0 49.875 1.58828 49.875 3.5625ZM72.4375 19H66.5V26.125H72.4375C74.4117 26.125 76 24.5367 76 22.5625C76 20.5883 74.4117 19 72.4375 19ZM72.4375 34.4375H66.5V41.5625H72.4375C74.4117 41.5625 76 39.9742 76 38C76 36.0258 74.4117 34.4375 72.4375 34.4375ZM72.4375 49.875H66.5V57H72.4375C74.4117 57 76 55.4117 76 53.4375C76 51.4633 74.4117 49.875 72.4375 49.875ZM57 72.4375V66.5H49.875V72.4375C49.875 74.4117 51.4633 76 53.4375 76C55.4117 76 57 74.4117 57 72.4375ZM41.5625 66.5H34.4375V72.4375C34.4375 74.4117 36.0258 76 38 76C39.9742 76 41.5625 74.4117 41.5625 72.4375V66.5ZM26.125 66.5H19V72.4375C19 74.4117 20.5883 76 22.5625 76C24.5367 76 26.125 74.4117 26.125 72.4375V66.5ZM3.5625 57H9.5V49.875H3.5625C1.58828 49.875 0 51.4633 0 53.4375C0 55.4117 1.58828 57 3.5625 57ZM9.5 41.5625V34.4375H3.5625C1.58828 34.4375 0 36.0258 0 38C0 39.9742 1.58828 41.5625 3.5625 41.5625H9.5ZM3.5625 19C1.58828 19 0 20.5883 0 22.5625C0 24.5367 1.58828 26.125 3.5625 26.125H9.5V19H3.5625ZM52.25 23.75H23.75V52.25H52.25V23.75Z"
            className='fill-white sm:fill-[#009090]' />
        <path
            d="M19 9.5C13.7602 9.5 9.5 13.7602 9.5 19V57C9.5 62.2398 13.7602 66.5 19 66.5H57C62.2398 66.5 66.5 62.2398 66.5 57V19C66.5 13.7602 62.2398 9.5 57 9.5H19ZM23.75 19H52.25C54.8773 19 57 21.1227 57 23.75V52.25C57 54.8773 54.8773 57 52.25 57H23.75C21.1227 57 19 54.8773 19 52.25V23.75C19 21.1227 21.1227 19 23.75 19Z"
            className='fill-white sm:fill-[#009090]' />
    </g>
    <defs>
        <clipPath id="clip0_534_424">
            <rect width="76" height="76" fill="white" />
        </clipPath>
    </defs>
</svg>