<svg width="62" height="49" viewBox="0 0 62 49" fill="none" xmlns="http://www.w3.org/2000/svg">
<g opacity="0.2" clip-path="url(#clip0_534_442)">
<path opacity="0.4" d="M24.5 8.75C24.5 6.42936 23.5781 4.20376 21.9372 2.56282C20.2962 0.921872 18.0706 0 15.75 0C13.4294 0 11.2038 0.921872 9.56282 2.56282C7.92187 4.20376 7 6.42936 7 8.75C7 11.0706 7.92187 13.2962 9.56282 14.9372C11.2038 16.5781 13.4294 17.5 15.75 17.5C18.0706 17.5 20.2962 16.5781 21.9372 14.9372C23.5781 13.2962 24.5 11.0706 24.5 8.75ZM64.75 8.75C64.75 6.42936 63.8281 4.20376 62.1872 2.56282C60.5462 0.921872 58.3206 0 56 0C53.6794 0 51.4538 0.921872 49.8128 2.56282C48.1719 4.20376 47.25 6.42936 47.25 8.75C47.25 11.0706 48.1719 13.2962 49.8128 14.9372C51.4538 16.5781 53.6794 17.5 56 17.5C58.3206 17.5 60.5462 16.5781 62.1872 14.9372C63.8281 13.2962 64.75 11.0706 64.75 8.75ZM11.6703 21C5.22812 21 0 26.2281 0 32.6703C0 33.95 1.05 35 2.32969 35H25.6703C25.6922 35 25.7141 35 25.7469 35C22.8375 32.4297 21.0109 28.6781 21.0109 24.5C21.0109 23.6688 21.0875 22.8594 21.2188 22.0609C19.7313 21.3719 18.0797 21 16.3406 21H11.6703ZM44.2641 35C44.2859 35 44.3078 35 44.3406 35H67.6703C68.9609 35 70 33.95 70 32.6703C70 26.2281 64.7719 21 58.3297 21H53.6703C51.9313 21 50.2797 21.3828 48.7922 22.0609C48.9344 22.8484 49 23.6688 49 24.5C49 28.6781 47.1625 32.4297 44.2641 35Z" fill="#009090"/>
<path d="M35 35C36.3789 35 37.7443 34.7284 39.0182 34.2007C40.2921 33.6731 41.4496 32.8996 42.4246 31.9246C43.3996 30.9496 44.1731 29.7921 44.7007 28.5182C45.2284 27.2443 45.5 25.8789 45.5 24.5C45.5 23.1211 45.2284 21.7557 44.7007 20.4818C44.1731 19.2079 43.3996 18.0504 42.4246 17.0754C41.4496 16.1004 40.2921 15.3269 39.0182 14.7993C37.7443 14.2716 36.3789 14 35 14C33.6211 14 32.2557 14.2716 30.9818 14.7993C29.7079 15.3269 28.5504 16.1004 27.5754 17.0754C26.6004 18.0504 25.8269 19.2079 25.2993 20.4818C24.7716 21.7557 24.5 23.1211 24.5 24.5C24.5 25.8789 24.7716 27.2443 25.2993 28.5182C25.8269 29.7921 26.6004 30.9496 27.5754 31.9246C28.5504 32.8996 29.7079 33.6731 30.9818 34.2007C32.2557 34.7284 33.6211 35 35 35ZM28.5797 38.5C20.5297 38.5 14 45.0297 14 53.0797C14 54.6875 15.3016 56 16.9203 56H53.0797C54.6875 56 56 54.6984 56 53.0797C56 45.0297 49.4703 38.5 41.4203 38.5H28.5797Z" fill="#009090"/>
</g>
<defs>
<clipPath id="clip0_534_442">
<rect width="70" height="56" fill="white"/>
</clipPath>
</defs>
</svg>
