<svg width="16" height="17" viewBox="0 0 16 17" fill="none" xmlns="http://www.w3.org/2000/svg">
    <path opacity="0.4"
        d="M5.16875 3.5C4.74375 3.5 4.36562 3.76875 4.225 4.16875L3.40937 6.5H12.5906L11.775 4.16875C11.6344 3.76875 11.2563 3.5 10.8313 3.5H5.16875ZM0 13V14.5C0 15.0531 0.446875 15.5 1 15.5H2C2.55312 15.5 3 15.0531 3 14.5V13H0ZM16 13H13V14.5C13 15.0531 13.4469 15.5 14 15.5H15C15.5531 15.5 16 15.0531 16 14.5V13Z"
        fill="#009090" />
    <path
        d="M4.225 4.16875L3.40937 6.5H12.5906L11.775 4.16875C11.6344 3.76875 11.2563 3.5 10.8313 3.5H5.16875C4.74375 3.5 4.36562 3.76875 4.225 4.16875ZM1.2375 6.65L2.3375 3.50938C2.75938 2.30625 3.89375 1.5 5.16875 1.5H10.8313C12.1062 1.5 13.2406 2.30625 13.6625 3.50938L14.7625 6.65C15.4875 6.95 16 7.66563 16 8.5V13H0V8.5C0 7.66563 0.5125 6.95 1.2375 6.65ZM4 9.5C4 9.23478 3.89464 8.98043 3.70711 8.79289C3.51957 8.60536 3.26522 8.5 3 8.5C2.73478 8.5 2.48043 8.60536 2.29289 8.79289C2.10536 8.98043 2 9.23478 2 9.5C2 9.76522 2.10536 10.0196 2.29289 10.2071C2.48043 10.3946 2.73478 10.5 3 10.5C3.26522 10.5 3.51957 10.3946 3.70711 10.2071C3.89464 10.0196 4 9.76522 4 9.5ZM13 10.5C13.2652 10.5 13.5196 10.3946 13.7071 10.2071C13.8946 10.0196 14 9.76522 14 9.5C14 9.23478 13.8946 8.98043 13.7071 8.79289C13.5196 8.60536 13.2652 8.5 13 8.5C12.7348 8.5 12.4804 8.60536 12.2929 8.79289C12.1054 8.98043 12 9.23478 12 9.5C12 9.76522 12.1054 10.0196 12.2929 10.2071C12.4804 10.3946 12.7348 10.5 13 10.5Z"
        fill="#009090" />
</svg>