<svg width="16" height="16" viewBox="0 0 16 16" fill="none" xmlns="http://www.w3.org/2000/svg">
    <g clip-path="url(#clip0_401_2057)">
        <path opacity="0.4"
            d="M4.00017 6H2.00017V13.1344C1.98142 13.1437 1.96267 13.1562 1.94704 13.1687L0.447042 14.1687C0.0814168 14.4125 -0.0842082 14.8687 0.0439168 15.2906C0.172042 15.7125 0.559542 16 1.00017 16H15.0002C15.4408 16 15.8283 15.7125 15.9564 15.2906C16.0845 14.8687 15.922 14.4125 15.5533 14.1687L14.0533 13.1687C14.0345 13.1562 14.0158 13.1469 13.997 13.1344V6H12.0002V13H10.7502V6H8.75017V13H7.25017V6H5.25017V13H4.00017V6Z"
            fill="#009090" />
        <path
            d="M8.39396 0.0796875C8.14396 -0.0265625 7.85646 -0.0265625 7.60646 0.0796875L0.606458 3.07969C0.168958 3.26719 -0.0747917 3.73594 0.0220833 4.19844C0.118958 4.66094 0.525208 4.99844 1.00021 4.99844V5.24844C1.00021 5.66406 1.33458 5.99844 1.75021 5.99844H14.2502C14.6658 5.99844 15.0002 5.66406 15.0002 5.24844V4.99844C15.4752 4.99844 15.8846 4.66406 15.9783 4.19844C16.0721 3.73281 15.8283 3.26406 15.394 3.07969L8.39396 0.0796875ZM8.00021 1.99844C8.26542 1.99844 8.51978 2.10379 8.70731 2.29133C8.89485 2.47887 9.00021 2.73322 9.00021 2.99844C9.00021 3.26365 8.89485 3.51801 8.70731 3.70554C8.51978 3.89308 8.26542 3.99844 8.00021 3.99844C7.73499 3.99844 7.48064 3.89308 7.2931 3.70554C7.10557 3.51801 7.00021 3.26365 7.00021 2.99844C7.00021 2.73322 7.10557 2.47887 7.2931 2.29133C7.48064 2.10379 7.73499 1.99844 8.00021 1.99844Z"
            fill="#009090" />
    </g>
    <defs>
        <clipPath id="clip0_401_2057">
            <rect width="16" height="16" fill="white" />
        </clipPath>
    </defs>
</svg>