<svg width="14" height="17" viewBox="0 0 14 17" fill="none" xmlns="http://www.w3.org/2000/svg">
    <g clip-path="url(#clip0_401_2069)">
        <path opacity="0.4"
            d="M5 0.5H9H10C10.5531 0.5 11 0.946875 11 1.5C11 2.05313 10.5531 2.5 10 2.5V6.65C10 7.01875 10.1031 7.38438 10.2969 7.69688L13.6781 13.1938C13.8875 13.5344 14 13.9281 14 14.3313C14 15.5281 13.0281 16.5 11.8313 16.5H2.16875C0.971875 16.5 0 15.5281 0 14.3313C0 13.9313 0.1125 13.5375 0.321875 13.1938L3.70312 7.7C3.89687 7.38437 4 7.02187 4 6.65312V2.5C3.44688 2.5 3 2.05313 3 1.5C3 0.946875 3.44688 0.5 4 0.5H5ZM6 2.5V6.65C6 7.39062 5.79375 8.11562 5.40625 8.74687L2.025 14.2437C2.00938 14.2719 2 14.3 2 14.3313C2 14.425 2.075 14.5 2.16875 14.5H11.8313C11.925 14.5 12 14.425 12 14.3313C12 14.3 11.9906 14.2687 11.975 14.2437L8.59375 8.74687C8.20625 8.11562 8 7.39062 8 6.65V2.5H6Z"
            fill="#009090" />
        <path
            d="M9.67188 10.5H4.32812L2.025 14.2437C2.00938 14.2719 2 14.3 2 14.3313C2 14.425 2.075 14.5 2.16875 14.5H11.8313C11.925 14.5 12 14.425 12 14.3313C12 14.3 11.9906 14.2687 11.975 14.2437L9.67188 10.5Z"
            fill="#009090" />
    </g>
    <defs>
        <clipPath id="clip0_401_2069">
            <rect width="14" height="16" fill="white" transform="translate(0 0.5)" />
        </clipPath>
    </defs>
</svg>