<svg width="16" height="17" viewBox="0 0 16 17" fill="none" xmlns="http://www.w3.org/2000/svg">
    <g clip-path="url(#clip0_401_2093)">
        <path opacity="0.4"
            d="M5.75 2C5.6125 2 5.5 2.1125 5.5 2.25V3.5H4V2.25C4 1.28438 4.78438 0.5 5.75 0.5H10.25C11.2156 0.5 12 1.28438 12 2.25V3.5H10.5V2.25C10.5 2.1125 10.3875 2 10.25 2H5.75Z"
            fill="#009090" />
        <path
            d="M2 3.5C0.896875 3.5 0 4.39688 0 5.5V13.5C0 14.6031 0.896875 15.5 2 15.5H14C15.1031 15.5 16 14.6031 16 13.5V5.5C16 4.39688 15.1031 3.5 14 3.5H2ZM7 7C7 6.725 7.225 6.5 7.5 6.5H8.5C8.775 6.5 9 6.725 9 7V8.5H10.5C10.775 8.5 11 8.725 11 9V10C11 10.275 10.775 10.5 10.5 10.5H9V12C9 12.275 8.775 12.5 8.5 12.5H7.5C7.225 12.5 7 12.275 7 12V10.5H5.5C5.225 10.5 5 10.275 5 10V9C5 8.725 5.225 8.5 5.5 8.5H7V7Z"
            fill="#009090" />
    </g>
    <defs>
        <clipPath id="clip0_401_2093">
            <rect width="16" height="16" fill="white" transform="translate(0 0.5)" />
        </clipPath>
    </defs>
</svg>